G75*
G70*
%OFA0B0*%
%FSLAX24Y24*%
%IPPOS*%
%LPD*%
%AMOC8*
5,1,8,0,0,1.08239X$1,22.5*
%
%ADD10R,0.0789X0.0828*%
%ADD11R,0.0907X0.0710*%
%ADD12R,0.0237X0.0769*%
%ADD13R,0.0400X0.0480*%
%ADD14R,0.0671X0.0671*%
%ADD15OC8,0.0671*%
%ADD16R,0.0434X0.0356*%
%ADD17R,0.0198X0.0474*%
%ADD18R,0.0198X0.0631*%
%ADD19R,0.0434X0.0474*%
%ADD20R,0.0375X0.0237*%
%ADD21C,0.0330*%
%ADD22C,0.0050*%
%ADD23C,0.0320*%
D10*
X003247Y000825D03*
X004172Y000825D03*
X005078Y000825D03*
X006003Y000845D03*
D11*
X005845Y001829D03*
X003405Y001849D03*
D12*
X004113Y001947D03*
X004369Y001947D03*
X004625Y001947D03*
X004881Y001947D03*
X005137Y001947D03*
D13*
X006455Y004015D03*
X006455Y004615D03*
X006435Y005465D03*
X006435Y006065D03*
X005355Y005825D03*
X005355Y006425D03*
X004895Y006455D03*
X004895Y005855D03*
X003345Y006825D03*
X003345Y007425D03*
X002665Y009215D03*
X002665Y009815D03*
X002335Y011365D03*
X002335Y011965D03*
X003265Y013285D03*
X003265Y013885D03*
X002955Y016855D03*
X002955Y017455D03*
X005635Y012195D03*
X005635Y011595D03*
X005725Y010085D03*
X005725Y009485D03*
X004685Y009355D03*
X004685Y009955D03*
X003905Y009965D03*
X003905Y009365D03*
X002425Y007425D03*
X002425Y006825D03*
X003165Y004695D03*
X003165Y004095D03*
D14*
X000625Y000625D03*
X008625Y019625D03*
D15*
X008625Y018625D03*
X008625Y017625D03*
X008625Y016625D03*
X008625Y015625D03*
X008625Y014625D03*
X008625Y013625D03*
X008625Y012625D03*
X008625Y011625D03*
X008625Y010625D03*
X008625Y009625D03*
X008625Y008625D03*
X008625Y007625D03*
X008625Y006625D03*
X008625Y005625D03*
X008625Y004625D03*
X008625Y003625D03*
X008625Y002625D03*
X008625Y001625D03*
X008625Y000625D03*
X000625Y001625D03*
X000625Y002625D03*
X000625Y003625D03*
X000625Y004625D03*
X000625Y005625D03*
X000625Y006625D03*
X000625Y007625D03*
X000625Y008625D03*
X000625Y009625D03*
X000625Y010625D03*
X000625Y011625D03*
X000625Y012625D03*
X000625Y013625D03*
X000625Y014625D03*
X000625Y015625D03*
X000625Y016625D03*
X000625Y017625D03*
X000625Y018625D03*
X000625Y019625D03*
D16*
X004505Y016375D03*
X004455Y014955D03*
X004455Y014215D03*
X005255Y014585D03*
X005305Y016005D03*
X005305Y016745D03*
D17*
X004722Y003860D03*
X004722Y003230D03*
X004525Y003230D03*
X004328Y003230D03*
X004328Y003860D03*
D18*
X004525Y003781D03*
D19*
X005638Y018890D03*
X005638Y019520D03*
X007252Y019520D03*
X007252Y018890D03*
X003472Y018900D03*
X003472Y019530D03*
X001858Y019530D03*
X001858Y018900D03*
D20*
X002762Y003191D03*
X002762Y002935D03*
X002762Y002679D03*
X003589Y002679D03*
X003589Y003191D03*
D21*
X001855Y001935D03*
X001855Y001435D03*
X006925Y005505D03*
X006925Y006005D03*
X006945Y004575D03*
X006945Y004075D03*
D22*
X007045Y004025D02*
X007045Y004000D01*
X006945Y003950D01*
X006845Y004000D01*
X006800Y004090D01*
X006800Y004560D01*
X006845Y004675D01*
X006945Y004700D01*
X007090Y004565D01*
X007090Y004085D01*
X007045Y004025D01*
X007045Y004005D02*
X006842Y004005D01*
X006818Y004054D02*
X007066Y004054D01*
X007090Y004102D02*
X006800Y004102D01*
X006800Y004151D02*
X007090Y004151D01*
X007090Y004199D02*
X006800Y004199D01*
X006800Y004248D02*
X007090Y004248D01*
X007090Y004296D02*
X006800Y004296D01*
X006800Y004345D02*
X007090Y004345D01*
X007090Y004393D02*
X006800Y004393D01*
X006800Y004442D02*
X007090Y004442D01*
X007090Y004490D02*
X006800Y004490D01*
X006800Y004539D02*
X007090Y004539D01*
X007066Y004587D02*
X006811Y004587D01*
X006830Y004636D02*
X007014Y004636D01*
X006962Y004684D02*
X006881Y004684D01*
X006925Y005380D02*
X007025Y005405D01*
X007070Y005520D01*
X007070Y005990D01*
X007025Y006080D01*
X006925Y006130D01*
X006825Y006080D01*
X006825Y006055D01*
X006780Y005995D01*
X006780Y005515D01*
X006925Y005380D01*
X006891Y005412D02*
X007028Y005412D01*
X007047Y005460D02*
X006839Y005460D01*
X006787Y005509D02*
X007066Y005509D01*
X007070Y005557D02*
X006780Y005557D01*
X006780Y005606D02*
X007070Y005606D01*
X007070Y005654D02*
X006780Y005654D01*
X006780Y005703D02*
X007070Y005703D01*
X007070Y005751D02*
X006780Y005751D01*
X006780Y005800D02*
X007070Y005800D01*
X007070Y005848D02*
X006780Y005848D01*
X006780Y005897D02*
X007070Y005897D01*
X007070Y005945D02*
X006780Y005945D01*
X006780Y005994D02*
X007068Y005994D01*
X007044Y006042D02*
X006815Y006042D01*
X006846Y006091D02*
X007004Y006091D01*
X006958Y003957D02*
X006932Y003957D01*
X002000Y001920D02*
X002000Y001450D01*
X001955Y001335D01*
X001855Y001310D01*
X001710Y001445D01*
X001710Y001925D01*
X001755Y001985D01*
X001755Y002010D01*
X001855Y002060D01*
X001955Y002010D01*
X002000Y001920D01*
X001710Y001920D01*
X001710Y001871D02*
X002000Y001871D01*
X002000Y001823D02*
X001710Y001823D01*
X001710Y001774D02*
X002000Y001774D01*
X002000Y001726D02*
X001710Y001726D01*
X001710Y001677D02*
X002000Y001677D01*
X002000Y001629D02*
X001710Y001629D01*
X001710Y001580D02*
X002000Y001580D01*
X002000Y001532D02*
X001710Y001532D01*
X001710Y001483D02*
X002000Y001483D01*
X001994Y001435D02*
X001721Y001435D01*
X001773Y001386D02*
X001975Y001386D01*
X001956Y001338D02*
X001825Y001338D01*
X001742Y001968D02*
X001976Y001968D01*
X001942Y002017D02*
X001768Y002017D01*
D23*
X001705Y002625D03*
X001945Y003625D03*
X002465Y003865D03*
X002885Y005245D03*
X003165Y005085D03*
X003345Y005945D03*
X003805Y005385D03*
X003865Y005065D03*
X004345Y005625D03*
X004585Y004805D03*
X004745Y004525D03*
X004905Y005105D03*
X005365Y005405D03*
X005845Y004525D03*
X006465Y003605D03*
X006945Y003605D03*
X007285Y004105D03*
X006905Y005045D03*
X006485Y005045D03*
X006085Y006435D03*
X006405Y006965D03*
X006485Y006565D03*
X006805Y006625D03*
X007045Y007285D03*
X007045Y007625D03*
X007525Y008305D03*
X007705Y008005D03*
X007665Y008635D03*
X007665Y009455D03*
X007885Y010385D03*
X008125Y011385D03*
X008125Y012945D03*
X008125Y013265D03*
X007745Y013865D03*
X007605Y014165D03*
X007285Y014245D03*
X006965Y013625D03*
X007225Y012945D03*
X007375Y012425D03*
X006965Y012185D03*
X006725Y012425D03*
X006385Y013025D03*
X006145Y011785D03*
X006235Y011145D03*
X006565Y010365D03*
X006805Y010625D03*
X006805Y011125D03*
X007045Y009065D03*
X006805Y008825D03*
X006405Y008325D03*
X005725Y007805D03*
X005385Y006865D03*
X005165Y007085D03*
X004945Y006845D03*
X004925Y007365D03*
X004585Y008465D03*
X004345Y008705D03*
X003905Y008965D03*
X003445Y009345D03*
X003085Y009705D03*
X003025Y010505D03*
X002665Y010205D03*
X002345Y010805D03*
X001985Y011725D03*
X001665Y012685D03*
X001865Y013165D03*
X002105Y012925D03*
X002725Y013205D03*
X002725Y014025D03*
X002345Y014285D03*
X002585Y014985D03*
X002945Y015685D03*
X003285Y016245D03*
X002965Y016445D03*
X003585Y015345D03*
X003265Y014285D03*
X003625Y013465D03*
X003885Y011765D03*
X004325Y010655D03*
X004765Y010355D03*
X005175Y010225D03*
X005645Y011205D03*
X005785Y010485D03*
X005705Y009085D03*
X005405Y008825D03*
X004765Y008965D03*
X004045Y007585D03*
X003745Y007825D03*
X004105Y007085D03*
X003325Y007905D03*
X003325Y008245D03*
X002905Y008505D03*
X002665Y008145D03*
X002585Y008465D03*
X002305Y008305D03*
X002425Y007905D03*
X002305Y009065D03*
X001915Y009115D03*
X001265Y008805D03*
X001025Y008305D03*
X001365Y007625D03*
X001685Y006625D03*
X001365Y005385D03*
X001705Y005245D03*
X002425Y005945D03*
X001365Y003625D03*
X001125Y001625D03*
X002185Y000625D03*
X003185Y003385D03*
X003765Y002405D03*
X003945Y002825D03*
X004565Y002825D03*
X004605Y002485D03*
X004985Y003385D03*
X004345Y004265D03*
X006465Y001625D03*
X007525Y000625D03*
X007765Y002625D03*
X008005Y003625D03*
X008245Y003945D03*
X008285Y004985D03*
X007765Y004625D03*
X007765Y004305D03*
X007525Y005405D03*
X007525Y005725D03*
X007905Y006965D03*
X007905Y007285D03*
X008145Y008255D03*
X008285Y006265D03*
X004905Y013025D03*
X005185Y013525D03*
X004905Y013925D03*
X004885Y014245D03*
X004575Y013885D03*
X004585Y013565D03*
X004585Y012785D03*
X004765Y011765D03*
X003445Y010645D03*
X003265Y011725D03*
X004825Y015005D03*
X004995Y015365D03*
X005245Y015635D03*
X005585Y015685D03*
X005605Y015325D03*
X005785Y014665D03*
X006145Y015625D03*
X006385Y016625D03*
X005845Y017325D03*
X005645Y017865D03*
X005505Y017085D03*
X004845Y016945D03*
X004865Y017325D03*
X003985Y017185D03*
X002985Y018585D03*
X002605Y017865D03*
X002135Y018015D03*
X002025Y017245D03*
X001865Y016625D03*
X001505Y015905D03*
X001535Y015385D03*
X001365Y014945D03*
X001365Y014625D03*
X001125Y014025D03*
X001125Y013625D03*
X001425Y012485D03*
X001125Y012345D03*
X000625Y012125D03*
X000625Y011125D03*
X001335Y010725D03*
X001645Y010485D03*
X000625Y009125D03*
X002365Y015925D03*
X001635Y017885D03*
X001365Y018395D03*
X001125Y017625D03*
X002365Y019625D03*
X003945Y019525D03*
X006725Y014625D03*
X008125Y017625D03*
X007885Y018105D03*
X008125Y018385D03*
X007645Y018625D03*
X007405Y018385D03*
X006895Y018355D03*
X006845Y019705D03*
X008125Y019625D03*
M02*
