G75*
G70*
%OFA0B0*%
%FSLAX24Y24*%
%IPPOS*%
%LPD*%
%AMOC8*
5,1,8,0,0,1.08239X$1,22.5*
%
%ADD10R,0.0236X0.0315*%
%ADD11R,0.0320X0.0400*%
%ADD12R,0.0400X0.0320*%
%ADD13R,0.0591X0.0591*%
%ADD14OC8,0.0591*%
%ADD15C,0.0094*%
%ADD16C,0.0197*%
%ADD17R,0.0472X0.0118*%
%ADD18R,0.0118X0.0472*%
%ADD19C,0.0070*%
%ADD20C,0.0240*%
%ADD21C,0.0100*%
D10*
X005299Y015015D03*
X005851Y015015D03*
D11*
X005505Y016085D03*
X005505Y016685D03*
X004465Y014915D03*
X004465Y014315D03*
X002975Y016845D03*
X002975Y017445D03*
X003585Y018955D03*
X003585Y019555D03*
X006285Y019505D03*
X006285Y018905D03*
D12*
X004455Y016825D03*
X004455Y015925D03*
X003855Y015925D03*
X003855Y016825D03*
X002795Y015335D03*
X002195Y015335D03*
X005285Y014245D03*
X005885Y014245D03*
D13*
X000625Y000625D03*
X008625Y019625D03*
D14*
X008625Y018625D03*
X008625Y017625D03*
X008625Y016625D03*
X008625Y015625D03*
X008625Y014625D03*
X008625Y013625D03*
X008625Y012625D03*
X008625Y011625D03*
X008625Y010625D03*
X008625Y009625D03*
X008625Y008625D03*
X008625Y007625D03*
X008625Y006625D03*
X008625Y005625D03*
X008625Y004625D03*
X008625Y003625D03*
X008625Y002625D03*
X008625Y001625D03*
X008625Y000625D03*
X000625Y001625D03*
X000625Y002625D03*
X000625Y003625D03*
X000625Y004625D03*
X000625Y005625D03*
X000625Y006625D03*
X000625Y007625D03*
X000625Y008625D03*
X000625Y009625D03*
X000625Y010625D03*
X000625Y011625D03*
X000625Y012625D03*
X000625Y013625D03*
X000625Y014625D03*
X000625Y015625D03*
X000625Y016625D03*
X000625Y017625D03*
X000625Y018625D03*
X000625Y019625D03*
D15*
X002401Y007665D02*
X002401Y007129D01*
X002401Y007665D02*
X002779Y007665D01*
X002779Y007129D01*
X002401Y007129D01*
X002401Y007222D02*
X002779Y007222D01*
X002779Y007315D02*
X002401Y007315D01*
X002401Y007408D02*
X002779Y007408D01*
X002779Y007501D02*
X002401Y007501D01*
X002401Y007594D02*
X002779Y007594D01*
X003071Y007665D02*
X003071Y007129D01*
X003071Y007665D02*
X003449Y007665D01*
X003449Y007129D01*
X003071Y007129D01*
X003071Y007222D02*
X003449Y007222D01*
X003449Y007315D02*
X003071Y007315D01*
X003071Y007408D02*
X003449Y007408D01*
X003449Y007501D02*
X003071Y007501D01*
X003071Y007594D02*
X003449Y007594D01*
X003071Y006721D02*
X003071Y006185D01*
X003071Y006721D02*
X003449Y006721D01*
X003449Y006185D01*
X003071Y006185D01*
X003071Y006278D02*
X003449Y006278D01*
X003449Y006371D02*
X003071Y006371D01*
X003071Y006464D02*
X003449Y006464D01*
X003449Y006557D02*
X003071Y006557D01*
X003071Y006650D02*
X003449Y006650D01*
X002401Y006721D02*
X002401Y006185D01*
X002401Y006721D02*
X002779Y006721D01*
X002779Y006185D01*
X002401Y006185D01*
X002401Y006278D02*
X002779Y006278D01*
X002779Y006371D02*
X002401Y006371D01*
X002401Y006464D02*
X002779Y006464D01*
X002779Y006557D02*
X002401Y006557D01*
X002401Y006650D02*
X002779Y006650D01*
D16*
X002925Y006925D02*
X002926Y006925D01*
X002926Y006924D01*
X002925Y006924D01*
X002924Y006924D01*
X002924Y006925D01*
X002924Y006926D01*
X002925Y006926D01*
X002926Y006926D01*
X002926Y006925D01*
D17*
G36*
X003843Y008676D02*
X003510Y008343D01*
X003427Y008426D01*
X003760Y008759D01*
X003843Y008676D01*
G37*
G36*
X003983Y008537D02*
X003650Y008204D01*
X003567Y008287D01*
X003900Y008620D01*
X003983Y008537D01*
G37*
G36*
X004122Y008398D02*
X003789Y008065D01*
X003706Y008148D01*
X004039Y008481D01*
X004122Y008398D01*
G37*
G36*
X004261Y008258D02*
X003928Y007925D01*
X003845Y008008D01*
X004178Y008341D01*
X004261Y008258D01*
G37*
G36*
X004400Y008119D02*
X004067Y007786D01*
X003984Y007869D01*
X004317Y008202D01*
X004400Y008119D01*
G37*
G36*
X003704Y008815D02*
X003371Y008482D01*
X003288Y008565D01*
X003621Y008898D01*
X003704Y008815D01*
G37*
G36*
X003565Y008954D02*
X003232Y008621D01*
X003149Y008704D01*
X003482Y009037D01*
X003565Y008954D01*
G37*
G36*
X003426Y009094D02*
X003093Y008761D01*
X003010Y008844D01*
X003343Y009177D01*
X003426Y009094D01*
G37*
G36*
X003287Y009233D02*
X002954Y008900D01*
X002871Y008983D01*
X003204Y009316D01*
X003287Y009233D01*
G37*
G36*
X003147Y009372D02*
X002814Y009039D01*
X002731Y009122D01*
X003064Y009455D01*
X003147Y009372D01*
G37*
G36*
X003008Y009511D02*
X002675Y009178D01*
X002592Y009261D01*
X002925Y009594D01*
X003008Y009511D01*
G37*
G36*
X002869Y009650D02*
X002536Y009317D01*
X002453Y009400D01*
X002786Y009733D01*
X002869Y009650D01*
G37*
G36*
X002730Y009790D02*
X002397Y009457D01*
X002314Y009540D01*
X002647Y009873D01*
X002730Y009790D01*
G37*
G36*
X002591Y009929D02*
X002258Y009596D01*
X002175Y009679D01*
X002508Y010012D01*
X002591Y009929D01*
G37*
G36*
X002451Y010068D02*
X002118Y009735D01*
X002035Y009818D01*
X002368Y010151D01*
X002451Y010068D01*
G37*
G36*
X002312Y010207D02*
X001979Y009874D01*
X001896Y009957D01*
X002229Y010290D01*
X002312Y010207D01*
G37*
G36*
X005486Y013381D02*
X005153Y013048D01*
X005070Y013131D01*
X005403Y013464D01*
X005486Y013381D01*
G37*
G36*
X005625Y013242D02*
X005292Y012909D01*
X005209Y012992D01*
X005542Y013325D01*
X005625Y013242D01*
G37*
G36*
X005764Y013102D02*
X005431Y012769D01*
X005348Y012852D01*
X005681Y013185D01*
X005764Y013102D01*
G37*
G36*
X005903Y012963D02*
X005570Y012630D01*
X005487Y012713D01*
X005820Y013046D01*
X005903Y012963D01*
G37*
G36*
X006043Y012824D02*
X005710Y012491D01*
X005627Y012574D01*
X005960Y012907D01*
X006043Y012824D01*
G37*
G36*
X006182Y012685D02*
X005849Y012352D01*
X005766Y012435D01*
X006099Y012768D01*
X006182Y012685D01*
G37*
G36*
X006321Y012546D02*
X005988Y012213D01*
X005905Y012296D01*
X006238Y012629D01*
X006321Y012546D01*
G37*
G36*
X006460Y012406D02*
X006127Y012073D01*
X006044Y012156D01*
X006377Y012489D01*
X006460Y012406D01*
G37*
G36*
X006599Y012267D02*
X006266Y011934D01*
X006183Y012017D01*
X006516Y012350D01*
X006599Y012267D01*
G37*
G36*
X006739Y012128D02*
X006406Y011795D01*
X006323Y011878D01*
X006656Y012211D01*
X006739Y012128D01*
G37*
G36*
X006878Y011989D02*
X006545Y011656D01*
X006462Y011739D01*
X006795Y012072D01*
X006878Y011989D01*
G37*
G36*
X007017Y011850D02*
X006684Y011517D01*
X006601Y011600D01*
X006934Y011933D01*
X007017Y011850D01*
G37*
G36*
X007156Y011710D02*
X006823Y011377D01*
X006740Y011460D01*
X007073Y011793D01*
X007156Y011710D01*
G37*
G36*
X007295Y011571D02*
X006962Y011238D01*
X006879Y011321D01*
X007212Y011654D01*
X007295Y011571D01*
G37*
G36*
X007435Y011432D02*
X007102Y011099D01*
X007019Y011182D01*
X007352Y011515D01*
X007435Y011432D01*
G37*
G36*
X007574Y011293D02*
X007241Y010960D01*
X007158Y011043D01*
X007491Y011376D01*
X007574Y011293D01*
G37*
D18*
G36*
X007574Y009957D02*
X007491Y009874D01*
X007158Y010207D01*
X007241Y010290D01*
X007574Y009957D01*
G37*
G36*
X007435Y009818D02*
X007352Y009735D01*
X007019Y010068D01*
X007102Y010151D01*
X007435Y009818D01*
G37*
G36*
X007295Y009679D02*
X007212Y009596D01*
X006879Y009929D01*
X006962Y010012D01*
X007295Y009679D01*
G37*
G36*
X007156Y009540D02*
X007073Y009457D01*
X006740Y009790D01*
X006823Y009873D01*
X007156Y009540D01*
G37*
G36*
X007017Y009400D02*
X006934Y009317D01*
X006601Y009650D01*
X006684Y009733D01*
X007017Y009400D01*
G37*
G36*
X006878Y009261D02*
X006795Y009178D01*
X006462Y009511D01*
X006545Y009594D01*
X006878Y009261D01*
G37*
G36*
X006739Y009122D02*
X006656Y009039D01*
X006323Y009372D01*
X006406Y009455D01*
X006739Y009122D01*
G37*
G36*
X006599Y008983D02*
X006516Y008900D01*
X006183Y009233D01*
X006266Y009316D01*
X006599Y008983D01*
G37*
G36*
X006460Y008844D02*
X006377Y008761D01*
X006044Y009094D01*
X006127Y009177D01*
X006460Y008844D01*
G37*
G36*
X006321Y008704D02*
X006238Y008621D01*
X005905Y008954D01*
X005988Y009037D01*
X006321Y008704D01*
G37*
G36*
X006182Y008565D02*
X006099Y008482D01*
X005766Y008815D01*
X005849Y008898D01*
X006182Y008565D01*
G37*
G36*
X006043Y008426D02*
X005960Y008343D01*
X005627Y008676D01*
X005710Y008759D01*
X006043Y008426D01*
G37*
G36*
X005903Y008287D02*
X005820Y008204D01*
X005487Y008537D01*
X005570Y008620D01*
X005903Y008287D01*
G37*
G36*
X005764Y008148D02*
X005681Y008065D01*
X005348Y008398D01*
X005431Y008481D01*
X005764Y008148D01*
G37*
G36*
X005625Y008008D02*
X005542Y007925D01*
X005209Y008258D01*
X005292Y008341D01*
X005625Y008008D01*
G37*
G36*
X005486Y007869D02*
X005403Y007786D01*
X005070Y008119D01*
X005153Y008202D01*
X005486Y007869D01*
G37*
G36*
X003565Y012296D02*
X003482Y012213D01*
X003149Y012546D01*
X003232Y012629D01*
X003565Y012296D01*
G37*
G36*
X003704Y012435D02*
X003621Y012352D01*
X003288Y012685D01*
X003371Y012768D01*
X003704Y012435D01*
G37*
G36*
X003843Y012574D02*
X003760Y012491D01*
X003427Y012824D01*
X003510Y012907D01*
X003843Y012574D01*
G37*
G36*
X003983Y012713D02*
X003900Y012630D01*
X003567Y012963D01*
X003650Y013046D01*
X003983Y012713D01*
G37*
G36*
X004122Y012852D02*
X004039Y012769D01*
X003706Y013102D01*
X003789Y013185D01*
X004122Y012852D01*
G37*
G36*
X004261Y012992D02*
X004178Y012909D01*
X003845Y013242D01*
X003928Y013325D01*
X004261Y012992D01*
G37*
G36*
X004400Y013131D02*
X004317Y013048D01*
X003984Y013381D01*
X004067Y013464D01*
X004400Y013131D01*
G37*
G36*
X003426Y012156D02*
X003343Y012073D01*
X003010Y012406D01*
X003093Y012489D01*
X003426Y012156D01*
G37*
G36*
X003287Y012017D02*
X003204Y011934D01*
X002871Y012267D01*
X002954Y012350D01*
X003287Y012017D01*
G37*
G36*
X003147Y011878D02*
X003064Y011795D01*
X002731Y012128D01*
X002814Y012211D01*
X003147Y011878D01*
G37*
G36*
X003008Y011739D02*
X002925Y011656D01*
X002592Y011989D01*
X002675Y012072D01*
X003008Y011739D01*
G37*
G36*
X002869Y011600D02*
X002786Y011517D01*
X002453Y011850D01*
X002536Y011933D01*
X002869Y011600D01*
G37*
G36*
X002730Y011460D02*
X002647Y011377D01*
X002314Y011710D01*
X002397Y011793D01*
X002730Y011460D01*
G37*
G36*
X002591Y011321D02*
X002508Y011238D01*
X002175Y011571D01*
X002258Y011654D01*
X002591Y011321D01*
G37*
G36*
X002451Y011182D02*
X002368Y011099D01*
X002035Y011432D01*
X002118Y011515D01*
X002451Y011182D01*
G37*
G36*
X002312Y011043D02*
X002229Y010960D01*
X001896Y011293D01*
X001979Y011376D01*
X002312Y011043D01*
G37*
D19*
X002345Y010805D02*
X002385Y010725D01*
X001335Y010725D01*
X001645Y010485D02*
X003015Y010485D01*
X003025Y010505D01*
X003185Y009965D02*
X003165Y009945D01*
X003885Y009225D01*
X003885Y008985D01*
X003905Y008965D01*
X004765Y008965D01*
X004585Y008465D02*
X004145Y008465D01*
X004125Y008485D01*
X003925Y008285D01*
X003914Y008273D01*
X004045Y008125D02*
X004053Y008133D01*
X004045Y008125D02*
X003745Y007825D01*
X003601Y007651D02*
X003652Y007600D01*
X003820Y007600D01*
X003820Y007492D01*
X003952Y007360D01*
X004138Y007360D01*
X004270Y007492D01*
X004270Y007678D01*
X004189Y007759D01*
X004506Y008076D01*
X004506Y008146D01*
X004964Y008143D01*
X004964Y008076D01*
X005360Y007680D01*
X005412Y007680D01*
X005427Y007665D01*
X005547Y007665D01*
X005632Y007580D01*
X005818Y007580D01*
X005950Y007712D01*
X005950Y007885D01*
X007227Y007885D01*
X007347Y007765D01*
X007223Y007765D01*
X007138Y007850D01*
X006952Y007850D01*
X006820Y007718D01*
X006820Y007532D01*
X006897Y007455D01*
X006820Y007378D01*
X006820Y007192D01*
X006907Y007105D01*
X006583Y007105D01*
X006498Y007190D01*
X006312Y007190D01*
X006180Y007058D01*
X006180Y006872D01*
X006312Y006740D01*
X006342Y006740D01*
X006260Y006658D01*
X006260Y006472D01*
X006392Y006340D01*
X006512Y006340D01*
X006607Y006245D01*
X008060Y006245D01*
X008060Y006172D01*
X008065Y006167D01*
X008065Y005765D01*
X007750Y005765D01*
X007750Y005818D01*
X007618Y005950D01*
X007432Y005950D01*
X007300Y005818D01*
X007300Y005632D01*
X007367Y005565D01*
X007362Y005560D01*
X005528Y005560D01*
X005458Y005630D01*
X005272Y005630D01*
X005140Y005498D01*
X005140Y005312D01*
X005272Y005180D01*
X005458Y005180D01*
X005528Y005250D01*
X007362Y005250D01*
X007432Y005180D01*
X007618Y005180D01*
X007750Y005312D01*
X007750Y005485D01*
X008065Y005485D01*
X008065Y005083D01*
X008060Y005078D01*
X008060Y005045D01*
X007467Y005045D01*
X007385Y004963D01*
X007385Y004487D01*
X007467Y004405D01*
X007540Y004332D01*
X007540Y004212D01*
X007672Y004080D01*
X007858Y004080D01*
X007990Y004212D01*
X007990Y004398D01*
X007923Y004465D01*
X007943Y004485D01*
X008065Y004485D01*
X008065Y004083D01*
X008020Y004038D01*
X008020Y004005D01*
X007503Y004005D01*
X007510Y004012D01*
X007510Y004198D01*
X007378Y004330D01*
X007192Y004330D01*
X007060Y004198D01*
X007060Y004145D01*
X006287Y004145D01*
X006205Y004063D01*
X006187Y004045D01*
X004485Y004045D01*
X004485Y004087D01*
X004570Y004172D01*
X004570Y004358D01*
X004438Y004490D01*
X004252Y004490D01*
X004120Y004358D01*
X004120Y004172D01*
X004205Y004087D01*
X004205Y003905D01*
X002690Y003905D01*
X002690Y003958D01*
X002558Y004090D01*
X002372Y004090D01*
X002240Y003958D01*
X002240Y003772D01*
X002247Y003765D01*
X002123Y003765D01*
X002038Y003850D01*
X001852Y003850D01*
X001720Y003718D01*
X001720Y003532D01*
X001852Y003400D01*
X002038Y003400D01*
X002123Y003485D01*
X006267Y003485D01*
X006372Y003380D01*
X006558Y003380D01*
X006643Y003465D01*
X006767Y003465D01*
X006852Y003380D01*
X007038Y003380D01*
X007170Y003512D01*
X007170Y003698D01*
X007143Y003725D01*
X007787Y003725D01*
X007780Y003718D01*
X007780Y003532D01*
X007912Y003400D01*
X008065Y003400D01*
X008065Y002765D01*
X007943Y002765D01*
X007858Y002850D01*
X007672Y002850D01*
X007540Y002718D01*
X007540Y002532D01*
X007672Y002400D01*
X007858Y002400D01*
X007943Y002485D01*
X008065Y002485D01*
X008065Y000780D01*
X007688Y000780D01*
X007618Y000850D01*
X007432Y000850D01*
X007300Y000718D01*
X007300Y000532D01*
X007432Y000400D01*
X007618Y000400D01*
X007688Y000470D01*
X008065Y000470D01*
X008065Y000360D01*
X001175Y000360D01*
X001175Y000485D01*
X002007Y000485D01*
X002092Y000400D01*
X002278Y000400D01*
X002410Y000532D01*
X002410Y000718D01*
X002278Y000850D01*
X002092Y000850D01*
X002007Y000765D01*
X001175Y000765D01*
X001175Y001400D01*
X001218Y001400D01*
X001350Y001532D01*
X001350Y001718D01*
X001218Y001850D01*
X001175Y001850D01*
X001175Y002485D01*
X001527Y002485D01*
X001612Y002400D01*
X001798Y002400D01*
X001930Y002532D01*
X001930Y002718D01*
X001798Y002850D01*
X001612Y002850D01*
X001527Y002765D01*
X001175Y002765D01*
X001175Y003485D01*
X001187Y003485D01*
X001272Y003400D01*
X001458Y003400D01*
X001590Y003532D01*
X001590Y003718D01*
X001458Y003850D01*
X001272Y003850D01*
X001187Y003765D01*
X001175Y003765D01*
X001175Y004485D01*
X003663Y004485D01*
X003843Y004665D01*
X004407Y004665D01*
X004492Y004580D01*
X004520Y004580D01*
X004520Y004432D01*
X004652Y004300D01*
X004838Y004300D01*
X004923Y004385D01*
X005667Y004385D01*
X005752Y004300D01*
X005938Y004300D01*
X006070Y004432D01*
X006070Y004618D01*
X005938Y004750D01*
X005752Y004750D01*
X005667Y004665D01*
X004923Y004665D01*
X004838Y004750D01*
X004810Y004750D01*
X004810Y004882D01*
X004812Y004880D01*
X004998Y004880D01*
X005130Y005012D01*
X005130Y005198D01*
X004998Y005330D01*
X004812Y005330D01*
X004742Y005260D01*
X003998Y005260D01*
X004030Y005292D01*
X004030Y005478D01*
X004023Y005485D01*
X004167Y005485D01*
X004252Y005400D01*
X004438Y005400D01*
X004570Y005532D01*
X004570Y005718D01*
X004438Y005850D01*
X004252Y005850D01*
X004167Y005765D01*
X002563Y005765D01*
X002650Y005852D01*
X002650Y005972D01*
X002711Y006033D01*
X002842Y006033D01*
X002909Y006100D01*
X002925Y006073D01*
X002959Y006039D01*
X003000Y006015D01*
X003047Y006003D01*
X003225Y006003D01*
X003225Y006418D01*
X003295Y006418D01*
X003295Y006488D01*
X003225Y006488D01*
X003225Y006903D01*
X003158Y006903D01*
X003158Y006948D01*
X003153Y006977D01*
X003512Y006977D01*
X003601Y007067D01*
X003601Y007651D01*
X003601Y007592D02*
X003820Y007592D01*
X003820Y007523D02*
X003601Y007523D01*
X003601Y007455D02*
X003857Y007455D01*
X003926Y007386D02*
X003601Y007386D01*
X003601Y007318D02*
X006820Y007318D01*
X006828Y007386D02*
X004164Y007386D01*
X004198Y007310D02*
X004012Y007310D01*
X003880Y007178D01*
X003880Y006992D01*
X004012Y006860D01*
X004198Y006860D01*
X004283Y006945D01*
X004987Y006945D01*
X005072Y006860D01*
X005258Y006860D01*
X005390Y006992D01*
X005390Y007178D01*
X005258Y007310D01*
X005072Y007310D01*
X004987Y007225D01*
X004283Y007225D01*
X004198Y007310D01*
X004259Y007249D02*
X005011Y007249D01*
X004925Y007365D02*
X004925Y008125D01*
X005125Y008325D01*
X005205Y008325D01*
X005385Y008145D01*
X005405Y008145D01*
X005417Y008133D01*
X005305Y007985D02*
X005285Y007985D01*
X005278Y007994D01*
X005305Y007985D02*
X005485Y007805D01*
X005725Y007805D01*
X005552Y007660D02*
X004270Y007660D01*
X004270Y007592D02*
X005620Y007592D01*
X005388Y007181D02*
X006302Y007181D01*
X006234Y007112D02*
X005390Y007112D01*
X005390Y007044D02*
X006180Y007044D01*
X006180Y006975D02*
X005373Y006975D01*
X005305Y006907D02*
X006180Y006907D01*
X006214Y006838D02*
X003589Y006838D01*
X003594Y006832D02*
X003561Y006866D01*
X003519Y006890D01*
X003473Y006903D01*
X003295Y006903D01*
X003295Y006488D01*
X003631Y006488D01*
X003631Y006744D01*
X003618Y006791D01*
X003594Y006832D01*
X003624Y006770D02*
X006282Y006770D01*
X006303Y006701D02*
X003631Y006701D01*
X003631Y006633D02*
X006260Y006633D01*
X006260Y006564D02*
X003631Y006564D01*
X003631Y006496D02*
X006260Y006496D01*
X006305Y006427D02*
X003295Y006427D01*
X003295Y006418D02*
X003631Y006418D01*
X003631Y006161D01*
X003618Y006114D01*
X003594Y006073D01*
X003561Y006039D01*
X003519Y006015D01*
X003473Y006003D01*
X003295Y006003D01*
X003295Y006418D01*
X003260Y006453D02*
X003245Y006465D01*
X003225Y006465D01*
X003225Y006488D02*
X003225Y006418D01*
X002932Y006418D01*
X002932Y006488D01*
X003225Y006488D01*
X003225Y006496D02*
X003295Y006496D01*
X003260Y006453D02*
X003205Y006485D01*
X003165Y006485D01*
X003165Y006505D01*
X003185Y006505D01*
X003185Y006525D01*
X003165Y006525D01*
X003165Y006545D01*
X003185Y006545D01*
X003185Y006565D01*
X003165Y006565D01*
X003145Y006545D01*
X003145Y006505D01*
X003125Y006505D01*
X003085Y006465D01*
X003085Y006445D01*
X003185Y006445D01*
X003185Y006425D01*
X003165Y006425D01*
X003165Y006405D01*
X003185Y006405D01*
X003185Y006385D01*
X003165Y006385D01*
X003165Y006365D01*
X003185Y006365D01*
X003185Y006345D01*
X003165Y006345D01*
X003145Y006365D01*
X003145Y006405D01*
X003125Y006405D01*
X003105Y006425D01*
X003085Y006425D01*
X003065Y006445D01*
X003065Y006485D01*
X003085Y006485D01*
X003105Y006465D01*
X003145Y006465D01*
X003145Y006485D01*
X003125Y006485D01*
X003065Y006545D01*
X003065Y006745D01*
X003145Y006745D01*
X003165Y006765D01*
X003185Y006765D01*
X003185Y006785D01*
X003165Y006785D01*
X003145Y006805D01*
X003185Y006845D01*
X003185Y006865D01*
X003165Y006865D01*
X003165Y006845D01*
X003105Y006845D01*
X003085Y006865D01*
X002865Y006865D01*
X002845Y006885D01*
X002665Y006885D01*
X002585Y006965D01*
X002585Y007345D01*
X002545Y007385D01*
X002545Y007425D01*
X002565Y007425D01*
X002585Y007445D01*
X002585Y008465D01*
X002476Y008157D02*
X003100Y008154D01*
X003100Y008152D01*
X003177Y008075D01*
X003100Y007998D01*
X003100Y007817D01*
X003008Y007817D01*
X002941Y007750D01*
X002925Y007777D01*
X002891Y007811D01*
X002850Y007835D01*
X002803Y007847D01*
X002625Y007847D01*
X002625Y007432D01*
X002605Y007405D01*
X002590Y007397D01*
X002555Y007386D02*
X001175Y007386D01*
X001175Y007318D02*
X002219Y007318D01*
X002219Y007362D02*
X002219Y007106D01*
X002232Y007059D01*
X002256Y007018D01*
X002289Y006984D01*
X002331Y006960D01*
X002377Y006947D01*
X002555Y006947D01*
X002555Y007362D01*
X002625Y007362D01*
X002625Y006947D01*
X002692Y006947D01*
X002692Y006902D01*
X002697Y006873D01*
X002338Y006873D01*
X002249Y006783D01*
X002249Y006122D01*
X002266Y006105D01*
X002200Y006038D01*
X002200Y005852D01*
X002287Y005765D01*
X001175Y005765D01*
X001175Y006485D01*
X001507Y006485D01*
X001592Y006400D01*
X001778Y006400D01*
X001910Y006532D01*
X001910Y006718D01*
X001778Y006850D01*
X001592Y006850D01*
X001507Y006765D01*
X001175Y006765D01*
X001175Y007485D01*
X001187Y007485D01*
X001272Y007400D01*
X001458Y007400D01*
X001590Y007532D01*
X001590Y007718D01*
X001458Y007850D01*
X001272Y007850D01*
X001187Y007765D01*
X001175Y007765D01*
X001175Y008137D01*
X001203Y008165D01*
X002132Y008159D01*
X002212Y008080D01*
X002398Y008080D01*
X002476Y008157D01*
X002458Y008140D02*
X003112Y008140D01*
X003173Y008071D02*
X001175Y008071D01*
X001175Y008003D02*
X003104Y008003D01*
X003100Y007934D02*
X001175Y007934D01*
X001175Y007866D02*
X003100Y007866D01*
X002987Y007797D02*
X002905Y007797D01*
X002625Y007797D02*
X002555Y007797D01*
X002555Y007847D02*
X002377Y007847D01*
X002331Y007835D01*
X002289Y007811D01*
X002256Y007777D01*
X002232Y007736D01*
X002219Y007689D01*
X002219Y007432D01*
X002555Y007432D01*
X002555Y007362D01*
X002219Y007362D01*
X002219Y007455D02*
X001513Y007455D01*
X001581Y007523D02*
X002219Y007523D01*
X002219Y007592D02*
X001590Y007592D01*
X001590Y007660D02*
X002219Y007660D01*
X002230Y007729D02*
X001580Y007729D01*
X001511Y007797D02*
X002276Y007797D01*
X002152Y008140D02*
X001178Y008140D01*
X001025Y008305D02*
X002305Y008305D01*
X002555Y007847D02*
X002555Y007432D01*
X002625Y007432D01*
X002625Y007455D02*
X002555Y007455D01*
X002555Y007523D02*
X002625Y007523D01*
X002625Y007592D02*
X002555Y007592D01*
X002555Y007660D02*
X002625Y007660D01*
X002625Y007729D02*
X002555Y007729D01*
X002665Y008125D02*
X002665Y008145D01*
X002905Y008505D02*
X003305Y008505D01*
X003485Y008685D01*
X003496Y008690D01*
X003357Y008829D02*
X003365Y008845D01*
X003605Y009085D01*
X003605Y009305D01*
X003565Y009345D01*
X003445Y009345D01*
X003635Y009955D02*
X003185Y009965D01*
X003165Y009945D02*
X002805Y009945D01*
X002525Y009665D01*
X002522Y009665D01*
X002505Y009645D01*
X002205Y009345D01*
X002145Y009345D01*
X001915Y009115D01*
X001925Y009505D02*
X001265Y008845D01*
X001265Y008805D01*
X000705Y009125D02*
X001065Y009485D01*
X001705Y009485D01*
X001865Y009645D01*
X001945Y009645D01*
X002225Y009925D01*
X002243Y009943D01*
X002383Y009804D02*
X002365Y009785D01*
X002085Y009505D01*
X001925Y009505D01*
X001645Y009625D02*
X002085Y010065D01*
X002104Y010082D01*
X002405Y010745D02*
X002345Y010805D01*
X002405Y010745D02*
X003345Y010745D01*
X003445Y010645D01*
X003635Y009955D02*
X004325Y010655D01*
X004765Y010355D02*
X004765Y010225D01*
X005175Y010225D01*
X005925Y010925D02*
X005645Y011205D01*
X005925Y010925D02*
X005905Y010905D01*
X005925Y010925D02*
X005965Y010885D01*
X005785Y010485D02*
X005885Y010385D01*
X006565Y010385D01*
X006565Y010365D01*
X006565Y010385D02*
X006885Y010385D01*
X006905Y010405D01*
X007865Y010405D01*
X007885Y010385D01*
X007405Y010065D02*
X007845Y009625D01*
X008625Y009625D01*
X008625Y008625D02*
X007665Y008635D01*
X007525Y008305D02*
X006945Y008305D01*
X006285Y008965D01*
X006265Y008965D01*
X006252Y008969D01*
X006145Y008825D02*
X006405Y008565D01*
X006485Y008565D01*
X006885Y008165D01*
X007345Y008165D01*
X007505Y008005D01*
X007705Y008005D01*
X007545Y007765D02*
X007285Y008025D01*
X005825Y008025D01*
X005585Y008265D01*
X005565Y008265D01*
X005556Y008273D01*
X005695Y008412D02*
X005705Y008405D01*
X005965Y008405D01*
X005985Y008425D01*
X005865Y008545D01*
X005835Y008551D01*
X005825Y008565D01*
X005805Y008565D01*
X005545Y008825D01*
X005405Y008825D01*
X005038Y008003D02*
X004432Y008003D01*
X004501Y008071D02*
X004969Y008071D01*
X004964Y008140D02*
X004506Y008140D01*
X004364Y007934D02*
X005106Y007934D01*
X005175Y007866D02*
X004295Y007866D01*
X004227Y007797D02*
X005243Y007797D01*
X005312Y007729D02*
X004220Y007729D01*
X004270Y007523D02*
X006829Y007523D01*
X006820Y007592D02*
X005830Y007592D01*
X005898Y007660D02*
X006820Y007660D01*
X006830Y007729D02*
X005950Y007729D01*
X005950Y007797D02*
X006899Y007797D01*
X007045Y007625D02*
X008625Y007625D01*
X008145Y007765D02*
X007545Y007765D01*
X007315Y007797D02*
X007191Y007797D01*
X007246Y007866D02*
X005950Y007866D01*
X006365Y008325D02*
X006005Y008685D01*
X005985Y008685D01*
X005974Y008690D01*
X006113Y008829D02*
X006125Y008825D01*
X006145Y008825D01*
X006365Y008325D02*
X006405Y008325D01*
X006705Y008825D02*
X006425Y009105D01*
X006405Y009105D01*
X006391Y009108D01*
X006531Y009247D02*
X006545Y009245D01*
X006565Y009245D01*
X006745Y009065D01*
X007045Y009065D01*
X006805Y008825D02*
X006705Y008825D01*
X007665Y009525D02*
X007265Y009925D01*
X007245Y009925D01*
X007227Y009943D01*
X007366Y010082D02*
X007385Y010065D01*
X007405Y010065D01*
X007665Y009525D02*
X007665Y009455D01*
X008145Y008255D02*
X008145Y007765D01*
X007905Y007285D02*
X007045Y007285D01*
X006896Y007455D02*
X004233Y007455D01*
X004045Y007585D02*
X003985Y007585D01*
X003985Y007785D01*
X004185Y007985D01*
X004192Y007994D01*
X003785Y008425D02*
X004065Y008705D01*
X004345Y008705D01*
X003785Y008425D02*
X003775Y008412D01*
X003635Y008551D02*
X003625Y008545D01*
X003325Y008245D01*
X003325Y007905D02*
X003265Y007845D01*
X003265Y007405D01*
X003260Y007397D01*
X003153Y006975D02*
X003897Y006975D01*
X003880Y007044D02*
X003578Y007044D01*
X003601Y007112D02*
X003880Y007112D01*
X003882Y007181D02*
X003601Y007181D01*
X003601Y007249D02*
X003951Y007249D01*
X003965Y006907D02*
X003158Y006907D01*
X003225Y006838D02*
X003295Y006838D01*
X003295Y006770D02*
X003225Y006770D01*
X003225Y006701D02*
X003295Y006701D01*
X003295Y006633D02*
X003225Y006633D01*
X003225Y006564D02*
X003295Y006564D01*
X003225Y006427D02*
X002932Y006427D01*
X002918Y006085D02*
X002894Y006085D01*
X002999Y006016D02*
X002694Y006016D01*
X002650Y005948D02*
X007429Y005948D01*
X007361Y005879D02*
X002650Y005879D01*
X002609Y005811D02*
X004212Y005811D01*
X004345Y005625D02*
X000625Y005625D01*
X000625Y004625D02*
X003605Y004625D01*
X003785Y004805D01*
X004585Y004805D01*
X004520Y004578D02*
X003756Y004578D01*
X003824Y004646D02*
X004426Y004646D01*
X004520Y004509D02*
X003687Y004509D01*
X003865Y005065D02*
X003865Y005105D01*
X003845Y005085D02*
X003865Y005065D01*
X004001Y005263D02*
X004744Y005263D01*
X004570Y005537D02*
X005178Y005537D01*
X005140Y005468D02*
X004506Y005468D01*
X004570Y005605D02*
X005247Y005605D01*
X005140Y005400D02*
X004030Y005400D01*
X004030Y005468D02*
X004184Y005468D01*
X004030Y005331D02*
X005140Y005331D01*
X005189Y005263D02*
X005066Y005263D01*
X005130Y005194D02*
X005258Y005194D01*
X005130Y005126D02*
X008065Y005126D01*
X008065Y005194D02*
X007632Y005194D01*
X007701Y005263D02*
X008065Y005263D01*
X008065Y005331D02*
X007750Y005331D01*
X007750Y005400D02*
X008065Y005400D01*
X008065Y005468D02*
X007750Y005468D01*
X007625Y005625D02*
X008625Y005625D01*
X008285Y004985D02*
X008205Y004905D01*
X007525Y004905D01*
X007525Y004545D01*
X007765Y004305D01*
X007585Y004167D02*
X007510Y004167D01*
X007510Y004098D02*
X007654Y004098D01*
X007510Y004030D02*
X008020Y004030D01*
X008065Y004098D02*
X007876Y004098D01*
X007945Y004167D02*
X008065Y004167D01*
X008065Y004235D02*
X007990Y004235D01*
X007990Y004304D02*
X008065Y004304D01*
X008065Y004372D02*
X007990Y004372D01*
X007948Y004441D02*
X008065Y004441D01*
X008245Y003945D02*
X008165Y003865D01*
X006405Y003865D01*
X006305Y003765D01*
X002565Y003765D01*
X002465Y003865D01*
X002619Y004030D02*
X004205Y004030D01*
X004194Y004098D02*
X001175Y004098D01*
X001175Y004030D02*
X002311Y004030D01*
X002243Y003961D02*
X001175Y003961D01*
X001175Y003893D02*
X002240Y003893D01*
X002240Y003824D02*
X002064Y003824D01*
X001945Y003625D02*
X006445Y003625D01*
X006465Y003605D01*
X006945Y003605D01*
X007071Y003413D02*
X007899Y003413D01*
X007830Y003482D02*
X007140Y003482D01*
X007170Y003550D02*
X007780Y003550D01*
X007780Y003619D02*
X007170Y003619D01*
X007170Y003687D02*
X007780Y003687D01*
X008005Y003625D02*
X008625Y003625D01*
X008245Y003945D02*
X008185Y003885D01*
X008065Y003345D02*
X001175Y003345D01*
X001175Y003413D02*
X001259Y003413D01*
X001190Y003482D02*
X001175Y003482D01*
X001175Y003276D02*
X008065Y003276D01*
X008065Y003208D02*
X001175Y003208D01*
X001175Y003139D02*
X008065Y003139D01*
X008065Y003071D02*
X001175Y003071D01*
X001175Y003002D02*
X003804Y003002D01*
X003852Y003050D02*
X003720Y002918D01*
X003720Y002732D01*
X003822Y002630D01*
X003672Y002630D01*
X003540Y002498D01*
X003540Y002312D01*
X003672Y002180D01*
X003858Y002180D01*
X003990Y002312D01*
X003990Y002345D01*
X004427Y002345D01*
X004512Y002260D01*
X004698Y002260D01*
X004830Y002392D01*
X004830Y002578D01*
X004733Y002675D01*
X004790Y002732D01*
X004790Y002918D01*
X004658Y003050D01*
X004472Y003050D01*
X004402Y002980D01*
X004108Y002980D01*
X004038Y003050D01*
X003852Y003050D01*
X003735Y002934D02*
X001175Y002934D01*
X001175Y002865D02*
X003720Y002865D01*
X003720Y002797D02*
X001852Y002797D01*
X001920Y002728D02*
X003724Y002728D01*
X003792Y002660D02*
X001930Y002660D01*
X001930Y002591D02*
X003633Y002591D01*
X003564Y002523D02*
X001921Y002523D01*
X001852Y002454D02*
X003540Y002454D01*
X003540Y002386D02*
X001175Y002386D01*
X001175Y002454D02*
X001558Y002454D01*
X001558Y002797D02*
X001175Y002797D01*
X001175Y002317D02*
X003540Y002317D01*
X003603Y002249D02*
X001175Y002249D01*
X001175Y002180D02*
X003672Y002180D01*
X003765Y002405D02*
X003845Y002485D01*
X004605Y002485D01*
X004455Y002317D02*
X003990Y002317D01*
X003927Y002249D02*
X008065Y002249D01*
X008065Y002317D02*
X004755Y002317D01*
X004824Y002386D02*
X008065Y002386D01*
X008065Y002454D02*
X007912Y002454D01*
X007912Y002797D02*
X008065Y002797D01*
X008065Y002865D02*
X004790Y002865D01*
X004790Y002797D02*
X007618Y002797D01*
X007550Y002728D02*
X004786Y002728D01*
X004749Y002660D02*
X007540Y002660D01*
X007540Y002591D02*
X004817Y002591D01*
X004830Y002523D02*
X007549Y002523D01*
X007618Y002454D02*
X004830Y002454D01*
X004775Y002934D02*
X008065Y002934D01*
X008065Y003002D02*
X004706Y003002D01*
X004424Y003002D02*
X004086Y003002D01*
X003858Y002180D02*
X008065Y002180D01*
X008065Y002112D02*
X001175Y002112D01*
X001175Y002043D02*
X008065Y002043D01*
X008065Y001975D02*
X001175Y001975D01*
X001175Y001906D02*
X008065Y001906D01*
X008065Y001838D02*
X001231Y001838D01*
X001299Y001769D02*
X008065Y001769D01*
X008065Y001701D02*
X001350Y001701D01*
X001350Y001632D02*
X008065Y001632D01*
X008065Y001564D02*
X001350Y001564D01*
X001313Y001495D02*
X008065Y001495D01*
X008065Y001427D02*
X001245Y001427D01*
X001175Y001358D02*
X008065Y001358D01*
X008065Y001290D02*
X001175Y001290D01*
X001175Y001221D02*
X008065Y001221D01*
X008065Y001153D02*
X001175Y001153D01*
X001175Y001084D02*
X008065Y001084D01*
X008065Y001016D02*
X001175Y001016D01*
X001175Y000947D02*
X008065Y000947D01*
X008065Y000879D02*
X001175Y000879D01*
X001175Y000810D02*
X002052Y000810D01*
X002185Y000625D02*
X000625Y000625D01*
X000625Y001625D02*
X001125Y001625D01*
X000625Y002625D02*
X001705Y002625D01*
X001839Y003413D02*
X001471Y003413D01*
X001540Y003482D02*
X001770Y003482D01*
X001720Y003550D02*
X001590Y003550D01*
X001590Y003619D02*
X001720Y003619D01*
X001720Y003687D02*
X001590Y003687D01*
X001553Y003756D02*
X001757Y003756D01*
X001826Y003824D02*
X001484Y003824D01*
X001365Y003625D02*
X000625Y003625D01*
X001175Y003824D02*
X001246Y003824D01*
X001175Y004167D02*
X004125Y004167D01*
X004120Y004235D02*
X001175Y004235D01*
X001175Y004304D02*
X004120Y004304D01*
X004134Y004372D02*
X001175Y004372D01*
X001175Y004441D02*
X004202Y004441D01*
X004345Y004265D02*
X004345Y003905D01*
X006245Y003905D01*
X006345Y004005D01*
X007185Y004005D01*
X007285Y004105D01*
X007165Y004304D02*
X005942Y004304D01*
X006010Y004372D02*
X007500Y004372D01*
X007540Y004304D02*
X007405Y004304D01*
X007473Y004235D02*
X007540Y004235D01*
X007431Y004441D02*
X006070Y004441D01*
X006070Y004509D02*
X007385Y004509D01*
X007385Y004578D02*
X006070Y004578D01*
X006042Y004646D02*
X007385Y004646D01*
X007385Y004715D02*
X005974Y004715D01*
X005845Y004525D02*
X004745Y004525D01*
X004874Y004715D02*
X005716Y004715D01*
X005680Y004372D02*
X004910Y004372D01*
X004842Y004304D02*
X005748Y004304D01*
X005472Y005194D02*
X007418Y005194D01*
X007411Y004989D02*
X005107Y004989D01*
X005130Y005057D02*
X008060Y005057D01*
X007765Y004625D02*
X008625Y004625D01*
X008065Y005811D02*
X007750Y005811D01*
X007689Y005879D02*
X008065Y005879D01*
X008065Y005948D02*
X007621Y005948D01*
X007525Y005725D02*
X007625Y005625D01*
X007327Y005605D02*
X005483Y005605D01*
X005038Y004920D02*
X007385Y004920D01*
X007385Y004852D02*
X004810Y004852D01*
X004810Y004783D02*
X007385Y004783D01*
X007097Y004235D02*
X004570Y004235D01*
X004570Y004304D02*
X004648Y004304D01*
X004580Y004372D02*
X004556Y004372D01*
X004520Y004441D02*
X004488Y004441D01*
X004565Y004167D02*
X007060Y004167D01*
X006819Y003413D02*
X006591Y003413D01*
X006339Y003413D02*
X002051Y003413D01*
X002120Y003482D02*
X006270Y003482D01*
X006240Y004098D02*
X004496Y004098D01*
X004205Y003961D02*
X002687Y003961D01*
X003185Y003385D02*
X003285Y003485D01*
X004885Y003485D01*
X004985Y003385D01*
X004570Y005674D02*
X007300Y005674D01*
X007300Y005742D02*
X004546Y005742D01*
X004478Y005811D02*
X007300Y005811D01*
X006905Y005045D02*
X006485Y005045D01*
X006562Y006290D02*
X003631Y006290D01*
X003631Y006222D02*
X008060Y006222D01*
X008065Y006153D02*
X003629Y006153D01*
X003601Y006085D02*
X008065Y006085D01*
X008065Y006016D02*
X003521Y006016D01*
X003631Y006359D02*
X006373Y006359D01*
X006485Y006565D02*
X006665Y006385D01*
X008165Y006385D01*
X008285Y006265D01*
X008625Y006625D02*
X006805Y006625D01*
X006900Y007112D02*
X006576Y007112D01*
X006508Y007181D02*
X006831Y007181D01*
X006820Y007249D02*
X005319Y007249D01*
X005165Y007085D02*
X004105Y007085D01*
X004245Y006907D02*
X005025Y006907D01*
X006075Y006445D02*
X006085Y006435D01*
X006405Y006965D02*
X007905Y006965D01*
X008625Y010625D02*
X006805Y010625D01*
X006805Y011125D02*
X006805Y011165D01*
X007085Y011445D01*
X007087Y011446D01*
X006948Y011585D02*
X006925Y011565D01*
X006665Y011305D01*
X006395Y011305D01*
X006235Y011145D01*
X006145Y011785D02*
X006145Y011885D01*
X006385Y012125D01*
X006391Y012142D01*
X006531Y012003D02*
X006545Y012005D01*
X006725Y012185D01*
X006725Y012425D01*
X006965Y012185D02*
X006965Y012145D01*
X006685Y011865D01*
X006670Y011864D01*
X006809Y011725D02*
X006825Y011725D01*
X007375Y012275D01*
X007375Y012425D01*
X007575Y012625D01*
X008625Y012625D01*
X008625Y011625D02*
X007405Y011625D01*
X007265Y011765D01*
X007125Y011765D01*
X006965Y011605D01*
X006948Y011585D01*
X007227Y011307D02*
X007245Y011325D01*
X007405Y011485D01*
X008025Y011485D01*
X008125Y011385D01*
X008125Y012945D02*
X007225Y012945D01*
X006965Y013625D02*
X008625Y013625D01*
X008625Y014625D02*
X006725Y014625D01*
X006765Y014145D02*
X007185Y014145D01*
X007285Y014245D01*
X007445Y014005D02*
X007605Y014165D01*
X007745Y013865D02*
X006885Y013865D01*
X006425Y013405D01*
X006245Y013405D01*
X006145Y013305D01*
X005605Y013305D01*
X005425Y013125D01*
X005417Y013117D01*
X005278Y013256D02*
X005285Y013265D01*
X005465Y013445D01*
X006085Y013445D01*
X006185Y013545D01*
X006365Y013545D01*
X006825Y014005D01*
X007445Y014005D01*
X006765Y014145D02*
X006545Y013925D01*
X004905Y013925D01*
X004885Y014245D02*
X005285Y014245D01*
X005325Y014625D02*
X005305Y014645D01*
X005305Y014985D01*
X005299Y015015D01*
X005285Y015025D01*
X004825Y015025D01*
X004825Y015005D01*
X004825Y015025D02*
X004465Y015025D01*
X004465Y014915D01*
X004465Y014315D02*
X004575Y013885D01*
X004585Y013565D02*
X004465Y013565D01*
X003505Y014525D01*
X002725Y014525D01*
X002385Y014865D01*
X001445Y014865D01*
X001365Y014945D01*
X001365Y014625D02*
X000625Y014625D01*
X000625Y013625D02*
X001125Y013625D01*
X001125Y014025D02*
X002725Y014025D01*
X002345Y014285D02*
X003265Y014285D01*
X003945Y013605D01*
X004085Y013605D01*
X004365Y013325D01*
X004985Y013325D01*
X005185Y013525D01*
X004905Y013025D02*
X004445Y013025D01*
X004345Y012925D01*
X004265Y012925D01*
X004085Y013105D01*
X004065Y013105D01*
X004053Y013117D01*
X003945Y012965D02*
X003925Y012965D01*
X003914Y012977D01*
X003945Y012965D02*
X004125Y012785D01*
X004585Y012785D01*
X004192Y013256D02*
X004185Y013265D01*
X004165Y013265D01*
X003965Y013465D01*
X003625Y013465D01*
X003485Y013105D02*
X002825Y013105D01*
X002725Y013205D01*
X002385Y012965D02*
X002185Y013165D01*
X001865Y013165D01*
X002105Y012925D02*
X002205Y012825D01*
X003205Y012825D01*
X003465Y012565D01*
X003485Y012565D01*
X003496Y012560D01*
X003605Y012705D02*
X003345Y012965D01*
X002385Y012965D01*
X002305Y012385D02*
X001525Y012385D01*
X001425Y012485D01*
X001225Y012245D02*
X001125Y012345D01*
X001225Y012245D02*
X002245Y012245D01*
X002365Y012125D01*
X002505Y012125D01*
X002765Y011865D01*
X002785Y011865D01*
X002800Y011864D01*
X002905Y012005D02*
X002645Y012265D01*
X002425Y012265D01*
X002305Y012385D01*
X002185Y012105D02*
X000645Y012105D01*
X000625Y012125D01*
X000625Y011625D02*
X001025Y011625D01*
X001365Y011965D01*
X002125Y011965D01*
X002485Y011605D01*
X002505Y011605D01*
X002522Y011585D01*
X002625Y011725D02*
X002365Y011985D01*
X002305Y011985D01*
X002185Y012105D01*
X001985Y011725D02*
X001985Y011545D01*
X002205Y011325D01*
X002225Y011325D01*
X002243Y011307D01*
X002383Y011446D02*
X002385Y011445D01*
X002405Y011445D01*
X002605Y011245D01*
X002625Y011725D02*
X002645Y011725D01*
X002661Y011725D01*
X002905Y012005D02*
X002925Y012005D01*
X002939Y012003D01*
X003325Y012425D02*
X003065Y012685D01*
X001665Y012685D01*
X002085Y011165D02*
X002104Y011168D01*
X002085Y011165D02*
X002045Y011125D01*
X000625Y011125D01*
X000625Y009625D02*
X001645Y009625D01*
X002305Y009065D02*
X002365Y009125D01*
X002365Y009245D01*
X002625Y009505D01*
X002645Y009505D01*
X002661Y009525D01*
X002665Y009545D01*
X002825Y009705D01*
X003085Y009705D01*
X003885Y011765D02*
X004765Y011765D01*
X005556Y012977D02*
X005565Y012985D01*
X005745Y013165D01*
X006205Y013165D01*
X006305Y013265D01*
X008125Y013265D01*
X007366Y011168D02*
X007365Y011165D01*
X007085Y010885D01*
X006385Y013025D02*
X005885Y013025D01*
X005705Y012845D01*
X005695Y012838D01*
X005665Y014245D02*
X005645Y014265D01*
X005645Y014485D01*
X005505Y014625D01*
X005325Y014625D01*
X005605Y015325D02*
X005845Y015325D01*
X005845Y015025D01*
X005851Y015015D01*
X005845Y014985D01*
X005845Y014685D01*
X005825Y014665D01*
X005785Y014665D01*
X005885Y014245D02*
X005665Y014245D01*
X005585Y015685D02*
X005505Y015685D01*
X005505Y016085D01*
X005505Y016245D01*
X003285Y016245D01*
X002985Y016445D02*
X002985Y016845D01*
X002975Y016845D01*
X002965Y016445D02*
X002985Y016445D01*
X002945Y015685D02*
X002285Y015685D01*
X002105Y015865D01*
X001545Y015865D01*
X001505Y015905D01*
X001295Y015625D02*
X001535Y015385D01*
X001295Y015625D02*
X000625Y015625D01*
X000625Y016625D02*
X001865Y016625D01*
X002025Y017245D02*
X002985Y017245D01*
X002985Y017445D01*
X002975Y017445D01*
X002785Y018005D02*
X005465Y018005D01*
X005565Y018105D01*
X007885Y018105D01*
X008125Y018385D02*
X007405Y018385D01*
X007645Y018625D02*
X008625Y018625D01*
X008625Y017625D02*
X008125Y017625D01*
X008625Y016625D02*
X006385Y016625D01*
X006145Y015625D02*
X008625Y015625D01*
X006795Y018255D02*
X006895Y018355D01*
X006795Y018255D02*
X005505Y018245D01*
X005405Y018145D01*
X002845Y018145D01*
X002745Y018245D01*
X001995Y018245D01*
X001635Y017885D01*
X001365Y018395D02*
X001125Y018395D01*
X000915Y018625D01*
X000625Y018625D01*
X000625Y017625D02*
X001125Y017625D01*
X000625Y019625D02*
X002365Y019625D01*
X002985Y018585D02*
X003585Y018585D01*
X003585Y018955D01*
X003605Y018905D01*
X006285Y018905D01*
X006285Y019505D02*
X006285Y019705D01*
X006845Y019705D01*
X005845Y017325D02*
X004865Y017325D01*
X004845Y016945D02*
X004725Y016825D01*
X004455Y016825D01*
X003985Y016825D02*
X003985Y017185D01*
X003985Y016825D02*
X003855Y016825D01*
X003855Y015925D02*
X002365Y015925D01*
X002445Y015345D02*
X002205Y015345D01*
X002195Y015335D01*
X002445Y015345D02*
X002445Y015045D01*
X002465Y015025D01*
X002545Y015025D01*
X002585Y014985D01*
X002795Y015335D02*
X002805Y015345D01*
X003585Y015345D01*
X003605Y015365D01*
X004455Y015925D02*
X004945Y015925D01*
X005245Y015635D01*
X005505Y016685D02*
X005505Y017085D01*
X005645Y017865D02*
X002605Y017865D01*
X002785Y018005D02*
X002685Y018105D01*
X002465Y018105D01*
X002385Y018025D01*
X002135Y018015D01*
X003585Y019525D02*
X003945Y019525D01*
X003585Y019525D02*
X003585Y019555D01*
X003485Y013105D02*
X003745Y012845D01*
X003765Y012845D01*
X003775Y012838D01*
X003635Y012699D02*
X003625Y012705D01*
X003605Y012705D01*
X003357Y012421D02*
X003345Y012425D01*
X003325Y012425D01*
X001219Y007797D02*
X001175Y007797D01*
X001365Y007625D02*
X000625Y007625D01*
X000625Y006625D02*
X001685Y006625D01*
X001805Y006427D02*
X002249Y006427D01*
X002249Y006359D02*
X001175Y006359D01*
X001175Y006427D02*
X001565Y006427D01*
X001511Y006770D02*
X001175Y006770D01*
X001175Y006838D02*
X001580Y006838D01*
X001790Y006838D02*
X002304Y006838D01*
X002249Y006770D02*
X001859Y006770D01*
X001910Y006701D02*
X002249Y006701D01*
X002249Y006633D02*
X001910Y006633D01*
X001910Y006564D02*
X002249Y006564D01*
X002249Y006496D02*
X001874Y006496D01*
X002200Y006016D02*
X001175Y006016D01*
X001175Y005948D02*
X002200Y005948D01*
X002200Y005879D02*
X001175Y005879D01*
X001175Y005811D02*
X002241Y005811D01*
X002425Y005945D02*
X002585Y006105D01*
X002585Y006445D01*
X002590Y006453D01*
X002821Y006873D02*
X002905Y006929D01*
X002921Y006905D01*
X002854Y006861D01*
X002842Y006873D01*
X002821Y006873D01*
X002872Y006907D02*
X002920Y006907D01*
X002925Y006925D02*
X002725Y006925D01*
X002692Y006925D01*
X002692Y006907D02*
X001175Y006907D01*
X001175Y006975D02*
X002305Y006975D01*
X002241Y007044D02*
X001175Y007044D01*
X001175Y007112D02*
X002219Y007112D01*
X002219Y007181D02*
X001175Y007181D01*
X001175Y007249D02*
X002219Y007249D01*
X002555Y007249D02*
X002625Y007249D01*
X002625Y007181D02*
X002555Y007181D01*
X002555Y007112D02*
X002625Y007112D01*
X002625Y007044D02*
X002555Y007044D01*
X002555Y006975D02*
X002625Y006975D01*
X002625Y007318D02*
X002555Y007318D01*
X002249Y006290D02*
X001175Y006290D01*
X001175Y006222D02*
X002249Y006222D01*
X002249Y006153D02*
X001175Y006153D01*
X001175Y006085D02*
X002246Y006085D01*
X001705Y005245D02*
X002885Y005245D01*
X003225Y006016D02*
X003295Y006016D01*
X003295Y006085D02*
X003225Y006085D01*
X003225Y006153D02*
X003295Y006153D01*
X003295Y006222D02*
X003225Y006222D01*
X003225Y006290D02*
X003295Y006290D01*
X003295Y006359D02*
X003225Y006359D01*
X003705Y005485D02*
X001465Y005485D01*
X001365Y005385D01*
X001217Y007455D02*
X001175Y007455D01*
X000705Y009125D02*
X000625Y009125D01*
X003705Y005485D02*
X003805Y005385D01*
X002318Y000810D02*
X007392Y000810D01*
X007323Y000742D02*
X002387Y000742D01*
X002410Y000673D02*
X007300Y000673D01*
X007300Y000605D02*
X002410Y000605D01*
X002410Y000536D02*
X007300Y000536D01*
X007364Y000468D02*
X002346Y000468D01*
X002024Y000468D02*
X001175Y000468D01*
X001175Y000399D02*
X008065Y000399D01*
X008065Y000468D02*
X007686Y000468D01*
X007658Y000810D02*
X008065Y000810D01*
X008625Y001625D02*
X006465Y001625D01*
X007765Y002625D02*
X008625Y002625D01*
X008625Y019625D02*
X008125Y019625D01*
D20*
X008125Y019625D03*
X007645Y018625D03*
X007405Y018385D03*
X007885Y018105D03*
X008125Y018385D03*
X008125Y017625D03*
X006895Y018355D03*
X006845Y019705D03*
X005845Y017325D03*
X005645Y017865D03*
X005505Y017085D03*
X004845Y016945D03*
X004865Y017325D03*
X005245Y015635D03*
X004995Y015365D03*
X004825Y015005D03*
X004885Y014245D03*
X004905Y013925D03*
X005185Y013525D03*
X004905Y013025D03*
X004585Y012785D03*
X004585Y013565D03*
X004575Y013885D03*
X003625Y013465D03*
X003265Y014285D03*
X003585Y015345D03*
X003285Y016245D03*
X002965Y016445D03*
X002945Y015685D03*
X002585Y014985D03*
X002345Y014285D03*
X002725Y014025D03*
X002725Y013205D03*
X002105Y012925D03*
X001865Y013165D03*
X001665Y012685D03*
X001425Y012485D03*
X001125Y012345D03*
X000625Y012125D03*
X000625Y011125D03*
X001335Y010725D03*
X001645Y010485D03*
X001985Y011725D03*
X002345Y010805D03*
X002665Y010205D03*
X003025Y010505D03*
X003085Y009705D03*
X003445Y009345D03*
X003905Y008965D03*
X004345Y008705D03*
X004585Y008465D03*
X004765Y008965D03*
X005175Y010225D03*
X004765Y010355D03*
X004325Y010655D03*
X003885Y011765D03*
X003445Y010645D03*
X003265Y011725D03*
X002305Y009065D03*
X002585Y008465D03*
X002665Y008145D03*
X002425Y007905D03*
X002305Y008305D03*
X001915Y009115D03*
X001265Y008805D03*
X001025Y008305D03*
X001365Y007625D03*
X001685Y006625D03*
X001365Y005385D03*
X001705Y005245D03*
X002425Y005945D03*
X002885Y005245D03*
X003165Y005085D03*
X003345Y005945D03*
X003805Y005385D03*
X003865Y005065D03*
X004345Y005625D03*
X004585Y004805D03*
X004745Y004525D03*
X004905Y005105D03*
X005365Y005405D03*
X005845Y004525D03*
X006465Y003605D03*
X006945Y003605D03*
X007285Y004105D03*
X006905Y005045D03*
X006485Y005045D03*
X006085Y006435D03*
X006405Y006965D03*
X006485Y006565D03*
X006805Y006625D03*
X007045Y007285D03*
X007045Y007625D03*
X007525Y008305D03*
X007705Y008005D03*
X007665Y008635D03*
X007665Y009455D03*
X007885Y010385D03*
X008125Y011385D03*
X008125Y012945D03*
X008125Y013265D03*
X007745Y013865D03*
X007605Y014165D03*
X007285Y014245D03*
X006965Y013625D03*
X007225Y012945D03*
X007375Y012425D03*
X006965Y012185D03*
X006725Y012425D03*
X006385Y013025D03*
X006145Y011785D03*
X006235Y011145D03*
X006565Y010365D03*
X006805Y010625D03*
X006805Y011125D03*
X007045Y009065D03*
X006805Y008825D03*
X006405Y008325D03*
X005725Y007805D03*
X005385Y006865D03*
X005165Y007085D03*
X004945Y006845D03*
X004925Y007365D03*
X005405Y008825D03*
X005705Y009085D03*
X005785Y010485D03*
X005645Y011205D03*
X004765Y011765D03*
X005785Y014665D03*
X005605Y015325D03*
X005585Y015685D03*
X006145Y015625D03*
X006385Y016625D03*
X006725Y014625D03*
X003985Y017185D03*
X002985Y018585D03*
X002605Y017865D03*
X002135Y018015D03*
X002025Y017245D03*
X001865Y016625D03*
X001505Y015905D03*
X001535Y015385D03*
X001365Y014945D03*
X001365Y014625D03*
X001125Y014025D03*
X001125Y013625D03*
X002365Y015925D03*
X001635Y017885D03*
X001365Y018395D03*
X001125Y017625D03*
X002365Y019625D03*
X003945Y019525D03*
X000625Y009125D03*
X002905Y008505D03*
X003325Y008245D03*
X003325Y007905D03*
X003745Y007825D03*
X004045Y007585D03*
X004105Y007085D03*
X004345Y004265D03*
X004985Y003385D03*
X004565Y002825D03*
X004605Y002485D03*
X003945Y002825D03*
X003765Y002405D03*
X003185Y003385D03*
X002465Y003865D03*
X001945Y003625D03*
X001705Y002625D03*
X001365Y003625D03*
X001125Y001625D03*
X002185Y000625D03*
X006465Y001625D03*
X007525Y000625D03*
X007765Y002625D03*
X008005Y003625D03*
X008245Y003945D03*
X008285Y004985D03*
X007765Y004625D03*
X007765Y004305D03*
X007525Y005405D03*
X007525Y005725D03*
X007905Y006965D03*
X007905Y007285D03*
X008145Y008255D03*
X008285Y006265D03*
D21*
X007525Y005405D02*
X005365Y005405D01*
X004905Y005105D02*
X003865Y005105D01*
X003845Y005085D02*
X003165Y005085D01*
X003175Y006925D02*
X002925Y006925D01*
X003175Y006925D02*
X003175Y006935D01*
X002665Y010205D02*
X002705Y010245D01*
X003415Y010245D01*
X003745Y010565D01*
X003745Y010905D01*
X005545Y010905D01*
X005545Y009085D01*
X005705Y009085D01*
X005965Y010885D02*
X007085Y010885D01*
X005905Y010905D02*
X005545Y010905D01*
X003745Y010905D02*
X002945Y010905D01*
X002695Y011155D01*
X003265Y011725D01*
X002695Y011155D02*
X002605Y011245D01*
X003605Y015365D02*
X004995Y015365D01*
X004565Y002825D02*
X003945Y002825D01*
X007525Y000625D02*
X008625Y000625D01*
M02*
