G75*
G70*
%OFA0B0*%
%FSLAX24Y24*%
%IPPOS*%
%LPD*%
%AMOC8*
5,1,8,0,0,1.08239X$1,22.5*
%
%ADD10R,0.0316X0.0395*%
%ADD11R,0.0400X0.0480*%
%ADD12R,0.0480X0.0400*%
%ADD13R,0.0671X0.0671*%
%ADD14OC8,0.0671*%
%ADD15C,0.0110*%
%ADD16C,0.0277*%
%ADD17R,0.0552X0.0198*%
%ADD18R,0.0198X0.0552*%
%ADD19C,0.0320*%
D10*
X005299Y015015D03*
X005851Y015015D03*
D11*
X005505Y016085D03*
X005505Y016685D03*
X004465Y014915D03*
X004465Y014315D03*
X002975Y016845D03*
X002975Y017445D03*
X003585Y018955D03*
X003585Y019555D03*
X006285Y019505D03*
X006285Y018905D03*
D12*
X004455Y016825D03*
X004455Y015925D03*
X003855Y015925D03*
X003855Y016825D03*
X002795Y015335D03*
X002195Y015335D03*
X005285Y014245D03*
X005885Y014245D03*
D13*
X000625Y000625D03*
X008625Y019625D03*
D14*
X008625Y018625D03*
X008625Y017625D03*
X008625Y016625D03*
X008625Y015625D03*
X008625Y014625D03*
X008625Y013625D03*
X008625Y012625D03*
X008625Y011625D03*
X008625Y010625D03*
X008625Y009625D03*
X008625Y008625D03*
X008625Y007625D03*
X008625Y006625D03*
X008625Y005625D03*
X008625Y004625D03*
X008625Y003625D03*
X008625Y002625D03*
X008625Y001625D03*
X008625Y000625D03*
X000625Y001625D03*
X000625Y002625D03*
X000625Y003625D03*
X000625Y004625D03*
X000625Y005625D03*
X000625Y006625D03*
X000625Y007625D03*
X000625Y008625D03*
X000625Y009625D03*
X000625Y010625D03*
X000625Y011625D03*
X000625Y012625D03*
X000625Y013625D03*
X000625Y014625D03*
X000625Y015625D03*
X000625Y016625D03*
X000625Y017625D03*
X000625Y018625D03*
X000625Y019625D03*
D15*
X002369Y007697D02*
X002369Y007097D01*
X002369Y007697D02*
X002811Y007697D01*
X002811Y007097D01*
X002369Y007097D01*
X002369Y007206D02*
X002811Y007206D01*
X002811Y007315D02*
X002369Y007315D01*
X002369Y007424D02*
X002811Y007424D01*
X002811Y007533D02*
X002369Y007533D01*
X002369Y007642D02*
X002811Y007642D01*
X003039Y007697D02*
X003039Y007097D01*
X003039Y007697D02*
X003481Y007697D01*
X003481Y007097D01*
X003039Y007097D01*
X003039Y007206D02*
X003481Y007206D01*
X003481Y007315D02*
X003039Y007315D01*
X003039Y007424D02*
X003481Y007424D01*
X003481Y007533D02*
X003039Y007533D01*
X003039Y007642D02*
X003481Y007642D01*
X003039Y006753D02*
X003039Y006153D01*
X003039Y006753D02*
X003481Y006753D01*
X003481Y006153D01*
X003039Y006153D01*
X003039Y006262D02*
X003481Y006262D01*
X003481Y006371D02*
X003039Y006371D01*
X003039Y006480D02*
X003481Y006480D01*
X003481Y006589D02*
X003039Y006589D01*
X003039Y006698D02*
X003481Y006698D01*
X002369Y006753D02*
X002369Y006153D01*
X002369Y006753D02*
X002811Y006753D01*
X002811Y006153D01*
X002369Y006153D01*
X002369Y006262D02*
X002811Y006262D01*
X002811Y006371D02*
X002369Y006371D01*
X002369Y006480D02*
X002811Y006480D01*
X002811Y006589D02*
X002369Y006589D01*
X002369Y006698D02*
X002811Y006698D01*
D16*
X002925Y006925D02*
X002926Y006925D01*
X002926Y006924D01*
X002925Y006924D01*
X002924Y006924D01*
X002924Y006925D01*
X002924Y006926D01*
X002925Y006926D01*
X002926Y006926D01*
X002926Y006925D01*
D17*
G36*
X003900Y008676D02*
X003510Y008286D01*
X003370Y008426D01*
X003760Y008816D01*
X003900Y008676D01*
G37*
G36*
X004040Y008537D02*
X003650Y008147D01*
X003510Y008287D01*
X003900Y008677D01*
X004040Y008537D01*
G37*
G36*
X004179Y008398D02*
X003789Y008008D01*
X003649Y008148D01*
X004039Y008538D01*
X004179Y008398D01*
G37*
G36*
X004318Y008258D02*
X003928Y007868D01*
X003788Y008008D01*
X004178Y008398D01*
X004318Y008258D01*
G37*
G36*
X004457Y008119D02*
X004067Y007729D01*
X003927Y007869D01*
X004317Y008259D01*
X004457Y008119D01*
G37*
G36*
X003761Y008815D02*
X003371Y008425D01*
X003231Y008565D01*
X003621Y008955D01*
X003761Y008815D01*
G37*
G36*
X003622Y008954D02*
X003232Y008564D01*
X003092Y008704D01*
X003482Y009094D01*
X003622Y008954D01*
G37*
G36*
X003483Y009094D02*
X003093Y008704D01*
X002953Y008844D01*
X003343Y009234D01*
X003483Y009094D01*
G37*
G36*
X003344Y009233D02*
X002954Y008843D01*
X002814Y008983D01*
X003204Y009373D01*
X003344Y009233D01*
G37*
G36*
X003204Y009372D02*
X002814Y008982D01*
X002674Y009122D01*
X003064Y009512D01*
X003204Y009372D01*
G37*
G36*
X003065Y009511D02*
X002675Y009121D01*
X002535Y009261D01*
X002925Y009651D01*
X003065Y009511D01*
G37*
G36*
X002926Y009650D02*
X002536Y009260D01*
X002396Y009400D01*
X002786Y009790D01*
X002926Y009650D01*
G37*
G36*
X002787Y009790D02*
X002397Y009400D01*
X002257Y009540D01*
X002647Y009930D01*
X002787Y009790D01*
G37*
G36*
X002648Y009929D02*
X002258Y009539D01*
X002118Y009679D01*
X002508Y010069D01*
X002648Y009929D01*
G37*
G36*
X002508Y010068D02*
X002118Y009678D01*
X001978Y009818D01*
X002368Y010208D01*
X002508Y010068D01*
G37*
G36*
X002369Y010207D02*
X001979Y009817D01*
X001839Y009957D01*
X002229Y010347D01*
X002369Y010207D01*
G37*
G36*
X005543Y013381D02*
X005153Y012991D01*
X005013Y013131D01*
X005403Y013521D01*
X005543Y013381D01*
G37*
G36*
X005682Y013242D02*
X005292Y012852D01*
X005152Y012992D01*
X005542Y013382D01*
X005682Y013242D01*
G37*
G36*
X005821Y013102D02*
X005431Y012712D01*
X005291Y012852D01*
X005681Y013242D01*
X005821Y013102D01*
G37*
G36*
X005960Y012963D02*
X005570Y012573D01*
X005430Y012713D01*
X005820Y013103D01*
X005960Y012963D01*
G37*
G36*
X006100Y012824D02*
X005710Y012434D01*
X005570Y012574D01*
X005960Y012964D01*
X006100Y012824D01*
G37*
G36*
X006239Y012685D02*
X005849Y012295D01*
X005709Y012435D01*
X006099Y012825D01*
X006239Y012685D01*
G37*
G36*
X006378Y012546D02*
X005988Y012156D01*
X005848Y012296D01*
X006238Y012686D01*
X006378Y012546D01*
G37*
G36*
X006517Y012406D02*
X006127Y012016D01*
X005987Y012156D01*
X006377Y012546D01*
X006517Y012406D01*
G37*
G36*
X006656Y012267D02*
X006266Y011877D01*
X006126Y012017D01*
X006516Y012407D01*
X006656Y012267D01*
G37*
G36*
X006796Y012128D02*
X006406Y011738D01*
X006266Y011878D01*
X006656Y012268D01*
X006796Y012128D01*
G37*
G36*
X006935Y011989D02*
X006545Y011599D01*
X006405Y011739D01*
X006795Y012129D01*
X006935Y011989D01*
G37*
G36*
X007074Y011850D02*
X006684Y011460D01*
X006544Y011600D01*
X006934Y011990D01*
X007074Y011850D01*
G37*
G36*
X007213Y011710D02*
X006823Y011320D01*
X006683Y011460D01*
X007073Y011850D01*
X007213Y011710D01*
G37*
G36*
X007352Y011571D02*
X006962Y011181D01*
X006822Y011321D01*
X007212Y011711D01*
X007352Y011571D01*
G37*
G36*
X007492Y011432D02*
X007102Y011042D01*
X006962Y011182D01*
X007352Y011572D01*
X007492Y011432D01*
G37*
G36*
X007631Y011293D02*
X007241Y010903D01*
X007101Y011043D01*
X007491Y011433D01*
X007631Y011293D01*
G37*
D18*
G36*
X007631Y009957D02*
X007491Y009817D01*
X007101Y010207D01*
X007241Y010347D01*
X007631Y009957D01*
G37*
G36*
X007492Y009818D02*
X007352Y009678D01*
X006962Y010068D01*
X007102Y010208D01*
X007492Y009818D01*
G37*
G36*
X007352Y009679D02*
X007212Y009539D01*
X006822Y009929D01*
X006962Y010069D01*
X007352Y009679D01*
G37*
G36*
X007213Y009540D02*
X007073Y009400D01*
X006683Y009790D01*
X006823Y009930D01*
X007213Y009540D01*
G37*
G36*
X007074Y009400D02*
X006934Y009260D01*
X006544Y009650D01*
X006684Y009790D01*
X007074Y009400D01*
G37*
G36*
X006935Y009261D02*
X006795Y009121D01*
X006405Y009511D01*
X006545Y009651D01*
X006935Y009261D01*
G37*
G36*
X006796Y009122D02*
X006656Y008982D01*
X006266Y009372D01*
X006406Y009512D01*
X006796Y009122D01*
G37*
G36*
X006656Y008983D02*
X006516Y008843D01*
X006126Y009233D01*
X006266Y009373D01*
X006656Y008983D01*
G37*
G36*
X006517Y008844D02*
X006377Y008704D01*
X005987Y009094D01*
X006127Y009234D01*
X006517Y008844D01*
G37*
G36*
X006378Y008704D02*
X006238Y008564D01*
X005848Y008954D01*
X005988Y009094D01*
X006378Y008704D01*
G37*
G36*
X006239Y008565D02*
X006099Y008425D01*
X005709Y008815D01*
X005849Y008955D01*
X006239Y008565D01*
G37*
G36*
X006100Y008426D02*
X005960Y008286D01*
X005570Y008676D01*
X005710Y008816D01*
X006100Y008426D01*
G37*
G36*
X005960Y008287D02*
X005820Y008147D01*
X005430Y008537D01*
X005570Y008677D01*
X005960Y008287D01*
G37*
G36*
X005821Y008148D02*
X005681Y008008D01*
X005291Y008398D01*
X005431Y008538D01*
X005821Y008148D01*
G37*
G36*
X005682Y008008D02*
X005542Y007868D01*
X005152Y008258D01*
X005292Y008398D01*
X005682Y008008D01*
G37*
G36*
X005543Y007869D02*
X005403Y007729D01*
X005013Y008119D01*
X005153Y008259D01*
X005543Y007869D01*
G37*
G36*
X003622Y012296D02*
X003482Y012156D01*
X003092Y012546D01*
X003232Y012686D01*
X003622Y012296D01*
G37*
G36*
X003761Y012435D02*
X003621Y012295D01*
X003231Y012685D01*
X003371Y012825D01*
X003761Y012435D01*
G37*
G36*
X003900Y012574D02*
X003760Y012434D01*
X003370Y012824D01*
X003510Y012964D01*
X003900Y012574D01*
G37*
G36*
X004040Y012713D02*
X003900Y012573D01*
X003510Y012963D01*
X003650Y013103D01*
X004040Y012713D01*
G37*
G36*
X004179Y012852D02*
X004039Y012712D01*
X003649Y013102D01*
X003789Y013242D01*
X004179Y012852D01*
G37*
G36*
X004318Y012992D02*
X004178Y012852D01*
X003788Y013242D01*
X003928Y013382D01*
X004318Y012992D01*
G37*
G36*
X004457Y013131D02*
X004317Y012991D01*
X003927Y013381D01*
X004067Y013521D01*
X004457Y013131D01*
G37*
G36*
X003483Y012156D02*
X003343Y012016D01*
X002953Y012406D01*
X003093Y012546D01*
X003483Y012156D01*
G37*
G36*
X003344Y012017D02*
X003204Y011877D01*
X002814Y012267D01*
X002954Y012407D01*
X003344Y012017D01*
G37*
G36*
X003204Y011878D02*
X003064Y011738D01*
X002674Y012128D01*
X002814Y012268D01*
X003204Y011878D01*
G37*
G36*
X003065Y011739D02*
X002925Y011599D01*
X002535Y011989D01*
X002675Y012129D01*
X003065Y011739D01*
G37*
G36*
X002926Y011600D02*
X002786Y011460D01*
X002396Y011850D01*
X002536Y011990D01*
X002926Y011600D01*
G37*
G36*
X002787Y011460D02*
X002647Y011320D01*
X002257Y011710D01*
X002397Y011850D01*
X002787Y011460D01*
G37*
G36*
X002648Y011321D02*
X002508Y011181D01*
X002118Y011571D01*
X002258Y011711D01*
X002648Y011321D01*
G37*
G36*
X002508Y011182D02*
X002368Y011042D01*
X001978Y011432D01*
X002118Y011572D01*
X002508Y011182D01*
G37*
G36*
X002369Y011043D02*
X002229Y010903D01*
X001839Y011293D01*
X001979Y011433D01*
X002369Y011043D01*
G37*
D19*
X002345Y010805D03*
X002665Y010205D03*
X003025Y010505D03*
X003085Y009705D03*
X003445Y009345D03*
X003905Y008965D03*
X004345Y008705D03*
X004585Y008465D03*
X004765Y008965D03*
X005175Y010225D03*
X004765Y010355D03*
X004325Y010655D03*
X003885Y011765D03*
X003445Y010645D03*
X003265Y011725D03*
X002725Y013205D03*
X002725Y014025D03*
X002345Y014285D03*
X002585Y014985D03*
X002945Y015685D03*
X003285Y016245D03*
X002965Y016445D03*
X003585Y015345D03*
X003265Y014285D03*
X003625Y013465D03*
X004585Y013565D03*
X004575Y013885D03*
X004885Y014245D03*
X004905Y013925D03*
X005185Y013525D03*
X004905Y013025D03*
X004585Y012785D03*
X004765Y011765D03*
X005645Y011205D03*
X005785Y010485D03*
X006235Y011145D03*
X006565Y010365D03*
X006805Y010625D03*
X006805Y011125D03*
X006965Y012185D03*
X006725Y012425D03*
X006385Y013025D03*
X006965Y013625D03*
X007285Y014245D03*
X007605Y014165D03*
X007745Y013865D03*
X008125Y013265D03*
X008125Y012945D03*
X008125Y011385D03*
X007885Y010385D03*
X007665Y009455D03*
X007665Y008635D03*
X007525Y008305D03*
X007705Y008005D03*
X007905Y007285D03*
X007905Y006965D03*
X008285Y006265D03*
X008285Y004985D03*
X008245Y003945D03*
X008005Y003625D03*
X007765Y004305D03*
X007765Y004625D03*
X007525Y005405D03*
X007525Y005725D03*
X006905Y005045D03*
X006485Y005045D03*
X005845Y004525D03*
X005365Y005405D03*
X004905Y005105D03*
X004745Y004525D03*
X004585Y004805D03*
X004345Y004265D03*
X003865Y005065D03*
X003805Y005385D03*
X004345Y005625D03*
X004945Y006845D03*
X005165Y007085D03*
X004925Y007365D03*
X005385Y006865D03*
X005725Y007805D03*
X005405Y008825D03*
X005705Y009085D03*
X006405Y008325D03*
X006805Y008825D03*
X007045Y009065D03*
X007045Y007625D03*
X007045Y007285D03*
X006805Y006625D03*
X006485Y006565D03*
X006405Y006965D03*
X006085Y006435D03*
X007285Y004105D03*
X006945Y003605D03*
X006465Y003605D03*
X006465Y001625D03*
X007525Y000625D03*
X007765Y002625D03*
X008145Y008255D03*
X007375Y012425D03*
X007225Y012945D03*
X006725Y014625D03*
X006145Y015625D03*
X005785Y014665D03*
X005605Y015325D03*
X005585Y015685D03*
X005245Y015635D03*
X004995Y015365D03*
X004825Y015005D03*
X004845Y016945D03*
X004865Y017325D03*
X005505Y017085D03*
X005845Y017325D03*
X005645Y017865D03*
X006385Y016625D03*
X006895Y018355D03*
X007405Y018385D03*
X007645Y018625D03*
X007885Y018105D03*
X008125Y018385D03*
X008125Y017625D03*
X008125Y019625D03*
X006845Y019705D03*
X003985Y017185D03*
X002985Y018585D03*
X002605Y017865D03*
X002135Y018015D03*
X002025Y017245D03*
X001865Y016625D03*
X001505Y015905D03*
X001535Y015385D03*
X001365Y014945D03*
X001365Y014625D03*
X001125Y014025D03*
X001125Y013625D03*
X001665Y012685D03*
X001865Y013165D03*
X002105Y012925D03*
X001985Y011725D03*
X001425Y012485D03*
X001125Y012345D03*
X000625Y012125D03*
X000625Y011125D03*
X001335Y010725D03*
X001645Y010485D03*
X001915Y009115D03*
X002305Y009065D03*
X002585Y008465D03*
X002665Y008145D03*
X002425Y007905D03*
X002305Y008305D03*
X002905Y008505D03*
X003325Y008245D03*
X003325Y007905D03*
X003745Y007825D03*
X004045Y007585D03*
X004105Y007085D03*
X003345Y005945D03*
X003165Y005085D03*
X002885Y005245D03*
X002425Y005945D03*
X001705Y005245D03*
X001365Y005385D03*
X001685Y006625D03*
X001365Y007625D03*
X001025Y008305D03*
X001265Y008805D03*
X000625Y009125D03*
X002465Y003865D03*
X001945Y003625D03*
X001705Y002625D03*
X001365Y003625D03*
X001125Y001625D03*
X002185Y000625D03*
X003185Y003385D03*
X003765Y002405D03*
X003945Y002825D03*
X004565Y002825D03*
X004605Y002485D03*
X004985Y003385D03*
X006145Y011785D03*
X003945Y019525D03*
X002365Y019625D03*
X001635Y017885D03*
X001365Y018395D03*
X001125Y017625D03*
X002365Y015925D03*
M02*
