G75*
G70*
%OFA0B0*%
%FSLAX24Y24*%
%IPPOS*%
%LPD*%
%AMOC8*
5,1,8,0,0,1.08239X$1,22.5*
%
%ADD10C,0.0000*%
%ADD11C,0.0060*%
%ADD12C,0.0050*%
%ADD13C,0.0010*%
%ADD14C,0.0030*%
%ADD15C,0.0020*%
D10*
X000125Y000125D02*
X000125Y020125D01*
X009125Y020125D01*
X009125Y000125D01*
X000125Y000125D01*
D11*
X005424Y002205D02*
X005638Y002419D01*
X005424Y002632D01*
X006065Y002632D01*
X006065Y002850D02*
X005424Y002850D01*
X005638Y003063D01*
X005424Y003277D01*
X006065Y003277D01*
X006065Y003814D02*
X005424Y003814D01*
X005745Y003494D01*
X005745Y003921D01*
X006172Y004139D02*
X006172Y004566D01*
X006065Y004783D02*
X005638Y004783D01*
X005851Y004783D02*
X005638Y004997D01*
X005638Y005103D01*
X005531Y005320D02*
X005424Y005427D01*
X005424Y005641D01*
X005531Y005747D01*
X005958Y005320D01*
X006065Y005427D01*
X006065Y005641D01*
X005958Y005747D01*
X005531Y005747D01*
X005531Y005320D02*
X005958Y005320D01*
X006065Y002205D02*
X005424Y002205D01*
D12*
X000125Y000125D02*
X000125Y020125D01*
X001125Y020125D01*
X001125Y000125D01*
X000125Y000125D01*
X002935Y003825D02*
X002935Y004965D01*
X003395Y004965D01*
X003395Y003825D01*
X002935Y003825D01*
X002984Y003327D02*
X002984Y002545D01*
X003349Y002547D01*
X003345Y003327D01*
X002984Y003327D01*
X003038Y003230D02*
X003040Y003242D01*
X003045Y003253D01*
X003054Y003262D01*
X003065Y003267D01*
X003077Y003269D01*
X003089Y003267D01*
X003100Y003262D01*
X003109Y003253D01*
X003114Y003242D01*
X003116Y003230D01*
X003114Y003218D01*
X003109Y003207D01*
X003100Y003198D01*
X003089Y003193D01*
X003077Y003191D01*
X003065Y003193D01*
X003054Y003198D01*
X003045Y003207D01*
X003040Y003218D01*
X003038Y003230D01*
X003188Y001455D02*
X003188Y001278D01*
X003188Y000353D02*
X003188Y000254D01*
X006082Y000254D01*
X006082Y000372D01*
X006082Y001297D02*
X006082Y001435D01*
X006225Y003745D02*
X006685Y003745D01*
X006685Y004885D01*
X006225Y004885D01*
X006225Y003745D01*
X006205Y005195D02*
X006205Y006335D01*
X006665Y006335D01*
X006665Y005195D01*
X006205Y005195D01*
X005585Y005555D02*
X005125Y005555D01*
X005125Y006695D01*
X005585Y006695D01*
X005585Y005555D01*
X005125Y005585D02*
X004665Y005585D01*
X004665Y006725D01*
X005125Y006725D01*
X005125Y005585D01*
X004909Y003942D02*
X004911Y003953D01*
X004916Y003962D01*
X004924Y003969D01*
X004935Y003973D01*
X004945Y003973D01*
X004955Y003969D01*
X004964Y003962D01*
X004969Y003953D01*
X004971Y003942D01*
X004969Y003931D01*
X004964Y003922D01*
X004956Y003915D01*
X004945Y003911D01*
X004935Y003911D01*
X004924Y003915D01*
X004916Y003922D01*
X004911Y003931D01*
X004909Y003942D01*
X004925Y003845D02*
X004825Y003845D01*
X004925Y003845D02*
X004925Y003245D01*
X004825Y003245D01*
X004225Y003245D02*
X004125Y003245D01*
X004125Y003845D01*
X004225Y003845D01*
X003575Y006555D02*
X003115Y006555D01*
X003115Y007695D01*
X003575Y007695D01*
X003575Y006555D01*
X002655Y006555D02*
X002195Y006555D01*
X002195Y007695D01*
X002655Y007695D01*
X002655Y006555D01*
X002435Y008945D02*
X002435Y010085D01*
X002895Y010085D01*
X002895Y008945D01*
X002435Y008945D01*
X002565Y011095D02*
X002105Y011095D01*
X002105Y012235D01*
X002565Y012235D01*
X002565Y011095D01*
X003035Y013015D02*
X003495Y013015D01*
X003495Y014155D01*
X003035Y014155D01*
X003035Y013015D01*
X003675Y010235D02*
X004135Y010235D01*
X004135Y009095D01*
X003675Y009095D01*
X003675Y010235D01*
X004455Y010225D02*
X004455Y009085D01*
X004915Y009085D01*
X004915Y010225D01*
X004455Y010225D01*
X005405Y011325D02*
X005865Y011325D01*
X005865Y012465D01*
X005405Y012465D01*
X005405Y011325D01*
X005495Y010355D02*
X005955Y010355D01*
X005955Y009215D01*
X005495Y009215D01*
X005495Y010355D01*
X005115Y014005D02*
X004595Y014005D01*
X004595Y014425D02*
X004595Y014745D01*
X004595Y015165D02*
X005115Y015165D01*
X005115Y015145D02*
X005115Y014795D01*
X005115Y014375D02*
X005115Y014025D01*
X005165Y015795D02*
X004645Y015795D01*
X004645Y015815D02*
X004645Y016165D01*
X004645Y016585D02*
X004645Y016935D01*
X004645Y016955D02*
X005165Y016955D01*
X005165Y016535D02*
X005165Y016215D01*
X005343Y018614D02*
X007528Y018614D01*
X007528Y019796D01*
X005343Y019796D01*
X005343Y018614D01*
X003748Y018624D02*
X003748Y019806D01*
X001563Y019806D01*
X001563Y018624D01*
X003748Y018624D01*
X003165Y017705D02*
X003165Y016605D01*
X002745Y016605D01*
X002745Y017705D01*
X003165Y017705D01*
X008125Y020125D02*
X008125Y000125D01*
X009125Y000125D01*
X009125Y020125D01*
X008125Y020125D01*
D13*
X005473Y017195D02*
X005373Y017195D01*
X005423Y017195D02*
X005423Y017045D01*
X005326Y017070D02*
X005301Y017045D01*
X005251Y017045D01*
X005226Y017070D01*
X005178Y017070D02*
X005153Y017045D01*
X005103Y017045D01*
X005078Y017070D01*
X005178Y017170D01*
X005178Y017070D01*
X005078Y017070D02*
X005078Y017170D01*
X005103Y017195D01*
X005153Y017195D01*
X005178Y017170D01*
X005226Y017170D02*
X005251Y017195D01*
X005301Y017195D01*
X005326Y017170D01*
X005326Y017145D01*
X005301Y017120D01*
X005326Y017095D01*
X005326Y017070D01*
X005301Y017120D02*
X005276Y017120D01*
X005031Y017170D02*
X004931Y017070D01*
X004931Y017045D01*
X004884Y017045D02*
X004784Y017045D01*
X004834Y017045D02*
X004834Y017195D01*
X004784Y017145D01*
X004736Y017170D02*
X004711Y017195D01*
X004661Y017195D01*
X004636Y017170D01*
X004636Y017070D01*
X004661Y017045D01*
X004711Y017045D01*
X004736Y017070D01*
X004589Y017120D02*
X004564Y017095D01*
X004489Y017095D01*
X004489Y017045D02*
X004489Y017195D01*
X004564Y017195D01*
X004589Y017170D01*
X004589Y017120D01*
X004442Y017195D02*
X004442Y017045D01*
X004392Y017145D02*
X004442Y017195D01*
X004392Y017145D02*
X004342Y017195D01*
X004342Y017045D01*
X004931Y017195D02*
X005031Y017195D01*
X005031Y017170D01*
X005057Y015737D02*
X005057Y015537D01*
X005082Y015562D02*
X005107Y015587D01*
X005107Y015612D01*
X005082Y015637D01*
X005032Y015637D01*
X005007Y015662D01*
X005007Y015687D01*
X005032Y015712D01*
X005082Y015712D01*
X005107Y015687D01*
X005154Y015637D02*
X005254Y015637D01*
X005229Y015562D02*
X005229Y015712D01*
X005154Y015637D01*
X005082Y015562D02*
X005032Y015562D01*
X005007Y015587D01*
X004960Y015587D02*
X004960Y015712D01*
X004860Y015712D02*
X004860Y015587D01*
X004885Y015562D01*
X004935Y015562D01*
X004960Y015587D01*
X005011Y015398D02*
X004961Y015373D01*
X004910Y015323D01*
X004986Y015323D01*
X005011Y015298D01*
X005011Y015273D01*
X004986Y015248D01*
X004936Y015248D01*
X004910Y015273D01*
X004910Y015323D01*
X004863Y015348D02*
X004863Y015373D01*
X004838Y015398D01*
X004788Y015398D01*
X004763Y015373D01*
X004716Y015373D02*
X004691Y015398D01*
X004641Y015398D01*
X004616Y015373D01*
X004616Y015348D01*
X004641Y015323D01*
X004691Y015323D01*
X004716Y015298D01*
X004716Y015273D01*
X004691Y015248D01*
X004641Y015248D01*
X004616Y015273D01*
X004569Y015273D02*
X004569Y015398D01*
X004666Y015423D02*
X004666Y015223D01*
X004763Y015248D02*
X004863Y015348D01*
X004863Y015248D02*
X004763Y015248D01*
X004569Y015273D02*
X004544Y015248D01*
X004494Y015248D01*
X004469Y015273D01*
X004469Y015398D01*
X004472Y013915D02*
X004397Y013915D01*
X004397Y013765D01*
X004350Y013765D02*
X004350Y013915D01*
X004300Y013865D01*
X004250Y013915D01*
X004250Y013765D01*
X004397Y013815D02*
X004472Y013815D01*
X004497Y013840D01*
X004497Y013890D01*
X004472Y013915D01*
X004544Y013890D02*
X004544Y013790D01*
X004569Y013765D01*
X004619Y013765D01*
X004644Y013790D01*
X004692Y013765D02*
X004792Y013765D01*
X004839Y013765D02*
X004839Y013790D01*
X004939Y013890D01*
X004939Y013915D01*
X004839Y013915D01*
X004742Y013915D02*
X004742Y013765D01*
X004692Y013865D02*
X004742Y013915D01*
X004644Y013890D02*
X004619Y013915D01*
X004569Y013915D01*
X004544Y013890D01*
X004986Y013890D02*
X005011Y013915D01*
X005061Y013915D01*
X005086Y013890D01*
X004986Y013790D01*
X005011Y013765D01*
X005061Y013765D01*
X005086Y013790D01*
X005086Y013890D01*
X005134Y013890D02*
X005159Y013915D01*
X005209Y013915D01*
X005234Y013890D01*
X005234Y013865D01*
X005209Y013840D01*
X005234Y013815D01*
X005234Y013790D01*
X005209Y013765D01*
X005159Y013765D01*
X005134Y013790D01*
X005184Y013840D02*
X005209Y013840D01*
X005281Y013915D02*
X005381Y013915D01*
X005331Y013915D02*
X005331Y013765D01*
X004986Y013790D02*
X004986Y013890D01*
X005220Y011795D02*
X005245Y011795D01*
X005345Y011695D01*
X005370Y011695D01*
X005345Y011647D02*
X005370Y011622D01*
X005370Y011572D01*
X005345Y011547D01*
X005345Y011500D02*
X005370Y011475D01*
X005370Y011425D01*
X005345Y011400D01*
X005245Y011400D01*
X005220Y011425D01*
X005220Y011475D01*
X005245Y011500D01*
X005245Y011547D02*
X005220Y011572D01*
X005220Y011622D01*
X005245Y011647D01*
X005270Y011647D01*
X005295Y011622D01*
X005320Y011647D01*
X005345Y011647D01*
X005295Y011622D02*
X005295Y011597D01*
X005220Y011695D02*
X005220Y011795D01*
X005335Y009685D02*
X005435Y009585D01*
X005460Y009610D01*
X005460Y009660D01*
X005435Y009685D01*
X005335Y009685D01*
X005310Y009660D01*
X005310Y009610D01*
X005335Y009585D01*
X005435Y009585D01*
X005460Y009537D02*
X005460Y009437D01*
X005460Y009390D02*
X005410Y009340D01*
X005410Y009365D02*
X005410Y009290D01*
X005460Y009290D02*
X005310Y009290D01*
X005310Y009365D01*
X005335Y009390D01*
X005385Y009390D01*
X005410Y009365D01*
X005360Y009437D02*
X005310Y009487D01*
X005460Y009487D01*
X004420Y009480D02*
X004395Y009455D01*
X004420Y009480D02*
X004420Y009530D01*
X004395Y009555D01*
X004370Y009555D01*
X004345Y009530D01*
X004345Y009505D01*
X004345Y009530D02*
X004320Y009555D01*
X004295Y009555D01*
X004270Y009530D01*
X004270Y009480D01*
X004295Y009455D01*
X004345Y009407D02*
X004345Y009307D01*
X004270Y009382D01*
X004420Y009382D01*
X004395Y009260D02*
X004420Y009235D01*
X004420Y009185D01*
X004395Y009160D01*
X004295Y009160D01*
X004270Y009185D01*
X004270Y009235D01*
X004295Y009260D01*
X003640Y009245D02*
X003615Y009270D01*
X003640Y009245D02*
X003640Y009195D01*
X003615Y009170D01*
X003515Y009170D01*
X003490Y009195D01*
X003490Y009245D01*
X003515Y009270D01*
X003565Y009317D02*
X003565Y009417D01*
X003565Y009465D02*
X003565Y009565D01*
X003640Y009540D02*
X003490Y009540D01*
X003565Y009465D01*
X003640Y009392D02*
X003490Y009392D01*
X003565Y009317D01*
X003080Y009750D02*
X003055Y009725D01*
X002955Y009725D01*
X002930Y009750D01*
X002930Y009800D01*
X002955Y009825D01*
X002930Y009873D02*
X002930Y009973D01*
X002955Y009973D01*
X003055Y009873D01*
X003080Y009873D01*
X003055Y009825D02*
X003080Y009800D01*
X003080Y009750D01*
X002045Y011170D02*
X002070Y011195D01*
X002070Y011245D01*
X002045Y011270D01*
X002070Y011317D02*
X002070Y011417D01*
X002070Y011367D02*
X001920Y011367D01*
X001970Y011317D01*
X001945Y011270D02*
X001920Y011245D01*
X001920Y011195D01*
X001945Y011170D01*
X002045Y011170D01*
X001995Y011465D02*
X001995Y011565D01*
X002070Y011540D02*
X001920Y011540D01*
X001995Y011465D01*
X002875Y013090D02*
X002850Y013115D01*
X002850Y013165D01*
X002875Y013190D01*
X002875Y013237D02*
X002850Y013262D01*
X002850Y013312D01*
X002875Y013337D01*
X002900Y013337D01*
X002925Y013312D01*
X002950Y013337D01*
X002975Y013337D01*
X003000Y013312D01*
X003000Y013262D01*
X002975Y013237D01*
X002975Y013190D02*
X003000Y013165D01*
X003000Y013115D01*
X002975Y013090D01*
X002875Y013090D01*
X002925Y013287D02*
X002925Y013312D01*
X002925Y013385D02*
X002925Y013460D01*
X002950Y013485D01*
X002975Y013485D01*
X003000Y013460D01*
X003000Y013410D01*
X002975Y013385D01*
X002925Y013385D01*
X002875Y013435D01*
X002850Y013485D01*
X002700Y016660D02*
X002550Y016660D01*
X002550Y016807D02*
X002550Y016882D01*
X002575Y016907D01*
X002600Y016907D01*
X002625Y016882D01*
X002625Y016807D01*
X002700Y016807D02*
X002700Y016882D01*
X002675Y016907D01*
X002650Y016907D01*
X002625Y016882D01*
X002600Y016955D02*
X002550Y017005D01*
X002700Y017005D01*
X002700Y016955D02*
X002700Y017055D01*
X002675Y017102D02*
X002700Y017127D01*
X002700Y017177D01*
X002675Y017202D01*
X002625Y017202D01*
X002600Y017177D01*
X002600Y017152D01*
X002625Y017102D01*
X002550Y017102D01*
X002550Y017202D01*
X002550Y016807D02*
X002700Y016807D01*
X002700Y016760D02*
X002700Y016660D01*
X003635Y007583D02*
X003735Y007483D01*
X003760Y007508D01*
X003760Y007558D01*
X003735Y007583D01*
X003635Y007583D01*
X003610Y007558D01*
X003610Y007508D01*
X003635Y007483D01*
X003735Y007483D01*
X003760Y007435D02*
X003760Y007335D01*
X003760Y007385D02*
X003610Y007385D01*
X003660Y007335D01*
X003635Y007288D02*
X003610Y007263D01*
X003610Y007213D01*
X003635Y007188D01*
X003735Y007188D01*
X003760Y007213D01*
X003760Y007263D01*
X003735Y007288D01*
X004505Y005907D02*
X004480Y005882D01*
X004480Y005832D01*
X004505Y005807D01*
X004505Y005760D02*
X004480Y005735D01*
X004480Y005685D01*
X004505Y005660D01*
X004605Y005660D01*
X004630Y005685D01*
X004630Y005735D01*
X004605Y005760D01*
X004630Y005807D02*
X004530Y005907D01*
X004505Y005907D01*
X004630Y005907D02*
X004630Y005807D01*
X004940Y005777D02*
X005015Y005777D01*
X004990Y005827D01*
X004990Y005852D01*
X005015Y005877D01*
X005065Y005877D01*
X005090Y005852D01*
X005090Y005802D01*
X005065Y005777D01*
X005065Y005730D02*
X005090Y005705D01*
X005090Y005655D01*
X005065Y005630D01*
X004965Y005630D01*
X004940Y005655D01*
X004940Y005705D01*
X004965Y005730D01*
X004940Y005777D02*
X004940Y005877D01*
X005055Y003803D02*
X005080Y003803D01*
X005105Y003778D01*
X005130Y003803D01*
X005155Y003803D01*
X005180Y003778D01*
X005180Y003728D01*
X005155Y003703D01*
X005180Y003655D02*
X005180Y003555D01*
X005080Y003655D01*
X005055Y003655D01*
X005030Y003630D01*
X005030Y003580D01*
X005055Y003555D01*
X005055Y003508D02*
X005030Y003483D01*
X005030Y003433D01*
X005055Y003408D01*
X005080Y003408D01*
X005105Y003433D01*
X005105Y003483D01*
X005130Y003508D01*
X005155Y003508D01*
X005180Y003483D01*
X005180Y003433D01*
X005155Y003408D01*
X005155Y003361D02*
X005030Y003361D01*
X005005Y003458D02*
X005205Y003458D01*
X005155Y003361D02*
X005180Y003336D01*
X005180Y003286D01*
X005155Y003261D01*
X005030Y003261D01*
X005055Y003703D02*
X005030Y003728D01*
X005030Y003778D01*
X005055Y003803D01*
X005105Y003778D02*
X005105Y003753D01*
X006040Y003845D02*
X006065Y003820D01*
X006165Y003820D01*
X006190Y003845D01*
X006190Y003895D01*
X006165Y003920D01*
X006190Y003967D02*
X006190Y004067D01*
X006190Y004115D02*
X006090Y004215D01*
X006065Y004215D01*
X006040Y004190D01*
X006040Y004140D01*
X006065Y004115D01*
X006040Y004017D02*
X006190Y004017D01*
X006190Y004115D02*
X006190Y004215D01*
X006040Y004017D02*
X006090Y003967D01*
X006065Y003920D02*
X006040Y003895D01*
X006040Y003845D01*
X006725Y005975D02*
X006825Y005975D01*
X006850Y006000D01*
X006850Y006050D01*
X006825Y006075D01*
X006825Y006123D02*
X006850Y006148D01*
X006850Y006198D01*
X006825Y006223D01*
X006800Y006223D01*
X006775Y006198D01*
X006775Y006123D01*
X006825Y006123D01*
X006775Y006123D02*
X006725Y006173D01*
X006700Y006223D01*
X006725Y006075D02*
X006700Y006050D01*
X006700Y006000D01*
X006725Y005975D01*
X003980Y003778D02*
X003980Y003728D01*
X003955Y003703D01*
X003905Y003728D02*
X003905Y003778D01*
X003930Y003803D01*
X003955Y003803D01*
X003980Y003778D01*
X003905Y003728D02*
X003880Y003703D01*
X003855Y003703D01*
X003830Y003728D01*
X003830Y003778D01*
X003855Y003803D01*
X003830Y003655D02*
X003830Y003555D01*
X003980Y003555D01*
X004005Y003508D02*
X004005Y003408D01*
X003980Y003361D02*
X003830Y003361D01*
X003880Y003311D01*
X003830Y003261D01*
X003980Y003261D01*
X003980Y003213D02*
X003930Y003163D01*
X003930Y003188D02*
X003930Y003113D01*
X003980Y003113D02*
X003830Y003113D01*
X003830Y003188D01*
X003855Y003213D01*
X003905Y003213D01*
X003930Y003188D01*
X003980Y003066D02*
X003980Y002966D01*
X003830Y002966D01*
X003830Y003066D01*
X003905Y003016D02*
X003905Y002966D01*
X003830Y002919D02*
X003830Y002819D01*
X003830Y002869D02*
X003980Y002869D01*
X004005Y002771D02*
X004005Y002671D01*
X003955Y002624D02*
X003980Y002599D01*
X003980Y002524D01*
X003830Y002524D01*
X003830Y002599D01*
X003855Y002624D01*
X003880Y002624D01*
X003905Y002599D01*
X003905Y002524D01*
X003930Y002477D02*
X003955Y002477D01*
X003980Y002452D01*
X003980Y002402D01*
X003955Y002377D01*
X003955Y002330D02*
X003830Y002330D01*
X003855Y002377D02*
X003880Y002377D01*
X003905Y002402D01*
X003905Y002452D01*
X003930Y002477D01*
X003855Y002477D02*
X003830Y002452D01*
X003830Y002402D01*
X003855Y002377D01*
X003955Y002330D02*
X003980Y002304D01*
X003980Y002254D01*
X003955Y002229D01*
X003830Y002229D01*
X003905Y002599D02*
X003930Y002624D01*
X003955Y002624D01*
X003905Y003555D02*
X003905Y003605D01*
X003555Y004458D02*
X003580Y004483D01*
X003580Y004533D01*
X003555Y004558D01*
X003580Y004605D02*
X003580Y004705D01*
X003580Y004655D02*
X003430Y004655D01*
X003480Y004605D01*
X003455Y004558D02*
X003430Y004533D01*
X003430Y004483D01*
X003455Y004458D01*
X003555Y004458D01*
X003555Y004753D02*
X003580Y004778D01*
X003580Y004828D01*
X003555Y004853D01*
X003530Y004853D01*
X003505Y004828D01*
X003505Y004803D01*
X003505Y004828D02*
X003480Y004853D01*
X003455Y004853D01*
X003430Y004828D01*
X003430Y004778D01*
X003455Y004753D01*
X002135Y006630D02*
X002160Y006655D01*
X002160Y006705D01*
X002135Y006730D01*
X002160Y006777D02*
X002160Y006877D01*
X002160Y006925D02*
X002160Y007025D01*
X002160Y006975D02*
X002010Y006975D01*
X002060Y006925D01*
X002010Y006827D02*
X002160Y006827D01*
X002060Y006777D02*
X002010Y006827D01*
X002035Y006730D02*
X002010Y006705D01*
X002010Y006655D01*
X002035Y006630D01*
X002135Y006630D01*
D14*
X003245Y016420D02*
X003245Y016613D01*
X003148Y016517D02*
X003342Y016517D01*
D15*
X003076Y003657D02*
X003076Y003437D01*
X003149Y003437D02*
X003002Y003437D01*
X002928Y003474D02*
X002892Y003437D01*
X002818Y003437D01*
X002781Y003474D01*
X002781Y003621D01*
X002818Y003657D01*
X002892Y003657D01*
X002928Y003621D01*
X003002Y003584D02*
X003076Y003657D01*
X002708Y003657D02*
X002634Y003657D01*
X002671Y003657D02*
X002671Y003437D01*
X002634Y003437D02*
X002708Y003437D01*
M02*
