%
M48
M72
T01C0.0160
T02C0.0394
%
T01
X1125Y1625
X1705Y2625
X1945Y3625
X2465Y3865
X2885Y5245
X3165Y5085
X3345Y5945
X3805Y5385
X3865Y5065
X4345Y5625
X4585Y4805
X4745Y4525
X4905Y5105
X5365Y5405
X5845Y4525
X6465Y3605
X6945Y3605
X7285Y4105
X6905Y5045
X6485Y5045
X6085Y6435
X6405Y6965
X6485Y6565
X6805Y6625
X7045Y7285
X7045Y7625
X7525Y8305
X7705Y8005
X7665Y8635
X7665Y9455
X7885Y10385
X8125Y11385
X8125Y12945
X8125Y13265
X7745Y13865
X7605Y14165
X7285Y14245
X6965Y13625
X7225Y12945
X7375Y12425
X6965Y12185
X6725Y12425
X6385Y13025
X6145Y11785
X6235Y11145
X6565Y10365
X6805Y10625
X6805Y11125
X7045Y9065
X6805Y8825
X6405Y8325
X5725Y7805
X5385Y6865
X5165Y7085
X4945Y6845
X4925Y7365
X4585Y8465
X4345Y8705
X3905Y8965
X3445Y9345
X3085Y9705
X3025Y10505
X2665Y10205
X2345Y10805
X1985Y11725
X1665Y12685
X1865Y13165
X2105Y12925
X2725Y13205
X2725Y14025
X2345Y14285
X2585Y14985
X2945Y15685
X3285Y16245
X2965Y16445
X3585Y15345
X3265Y14285
X3625Y13465
X3885Y11765
X4325Y10655
X4765Y10355
X5175Y10225
X5645Y11205
X5785Y10485
X5705Y9085
X5405Y8825
X4765Y8965
X4045Y7585
X3745Y7825
X4105Y7085
X3325Y7905
X3325Y8245
X2905Y8505
X2665Y8145
X2585Y8465
X2305Y8305
X2425Y7905
X2305Y9065
X1915Y9115
X1265Y8805
X1025Y8305
X1365Y7625
X1685Y6625
X1365Y5385
X1705Y5245
X2425Y5945
X1365Y3625
X2185Y625
X3185Y3385
X3765Y2405
X3945Y2825
X4565Y2825
X4605Y2485
X4985Y3385
X4345Y4265
X6465Y1625
X7525Y625
X7765Y2625
X8005Y3625
X8245Y3945
X8285Y4985
X7765Y4625
X7765Y4305
X7525Y5405
X7525Y5725
X7905Y6965
X7905Y7285
X8145Y8255
X8285Y6265
X4905Y13025
X5185Y13525
X4905Y13925
X4885Y14245
X4575Y13885
X4585Y13565
X4585Y12785
X4765Y11765
X3445Y10645
X3265Y11725
X4825Y15005
X4995Y15365
X5245Y15635
X5585Y15685
X5605Y15325
X5785Y14665
X6145Y15625
X6385Y16625
X5845Y17325
X5645Y17865
X5505Y17085
X4845Y16945
X4865Y17325
X3985Y17185
X2985Y18585
X2605Y17865
X2135Y18015
X2025Y17245
X1865Y16625
X1505Y15905
X1535Y15385
X1365Y14945
X1365Y14625
X1125Y14025
X1125Y13625
X1425Y12485
X1125Y12345
X625Y12125
X625Y11125
X1335Y10725
X1645Y10485
X625Y9125
X2365Y15925
X1635Y17885
X1365Y18395
X1125Y17625
X2365Y19625
X3945Y19525
X6725Y14625
X8125Y17625
X7885Y18105
X8125Y18385
X7645Y18625
X7405Y18385
X6895Y18355
X6845Y19705
X8125Y19625
T02
X625Y625
X625Y1625
X625Y2625
X625Y3625
X625Y4625
X625Y5625
X625Y6625
X625Y7625
X625Y8625
X625Y9625
X625Y10625
X625Y11625
X625Y12625
X625Y13625
X625Y14625
X625Y15625
X625Y16625
X625Y17625
X625Y18625
X625Y19625
X8625Y19625
X8625Y18625
X8625Y17625
X8625Y16625
X8625Y15625
X8625Y14625
X8625Y13625
X8625Y12625
X8625Y11625
X8625Y10625
X8625Y9625
X8625Y8625
X8625Y7625
X8625Y6625
X8625Y5625
X8625Y4625
X8625Y3625
X8625Y2625
X8625Y1625
X8625Y625
M30
